<svg  viewBox="0 0 573 112" fill="none" xmlns="http://www.w3.org/2000/svg">
<path d="M41.9802 36.8399C41.6202 33.3599 40.8902 30.0699 39.6202 26.8999C38.3902 23.8299 36.4002 21.7999 32.8102 21.8999C30.8302 21.9499 28.9702 22.4399 27.4002 23.5899C21.0402 28.1999 17.1202 34.2999 16.3702 42.2199C16.2702 43.2399 16.4202 44.2899 16.5902 45.3099C16.8802 47.0799 17.7802 48.5399 19.6102 48.9599C22.4402 49.5999 25.3002 50.1799 28.1802 50.5299C34.0302 51.2499 39.8002 52.2499 45.3202 54.3699C49.4002 55.9299 53.1202 58.0799 56.1102 61.3099C62.4302 68.1399 62.5202 78.5399 56.4502 85.9599C52.3702 90.9499 47.0402 93.7799 40.8602 95.1399C33.5402 96.7499 26.3902 96.2399 19.5802 92.9199C18.1902 92.2399 16.8402 91.3999 15.6602 90.4099C11.4802 86.9099 11.2302 82.1999 14.9102 78.1599C18.3202 74.4199 24.8002 74.1999 28.1402 77.7199C25.7502 77.5099 23.6302 78.0799 21.7402 79.6699C23.8902 82.2599 26.7102 83.2599 29.7702 83.7099C35.0402 84.4799 40.0502 83.7899 44.5902 80.7899C46.9802 79.2099 48.6102 76.9999 49.3502 74.2499C50.2302 70.9599 49.1302 68.2199 46.6902 65.9399C44.5402 63.9299 41.9502 62.7299 39.2202 61.7699C34.8202 60.2099 30.2302 59.6099 25.6602 58.8699C22.5302 58.3699 19.3702 57.6899 16.3902 56.6199C11.2802 54.7799 8.8602 50.6799 8.2002 45.4699C7.4202 39.2899 9.0802 33.5999 12.0502 28.2499C14.5002 23.8399 17.6302 19.9599 21.8102 17.0599C25.6602 14.3899 29.8902 13.1299 34.6202 13.9299C40.3102 14.8899 44.2002 19.1099 44.6402 24.8599C44.9402 28.8499 44.2202 32.6399 42.4302 36.2199C42.2902 36.4199 42.1202 36.6299 41.9802 36.8399Z" fill="var(--svg-primary, #4C2C57)"/>
<path d="M479.55 66.98C478.43 69.19 477.16 71.08 476.48 73.16C475.17 77.21 474.21 81.37 473.07 85.47C472.73 86.69 472.41 87.95 471.81 89.06C470.79 90.97 468.72 91.88 466.76 91.53C464.63 91.15 463.1 89.72 462.74 87.48C462.51 86.07 462.53 84.62 462.52 83.19C462.49 78.45 462.64 73.6999 462.47 68.9599C462.06 57.3499 462.15 45.74 462.51 34.13C462.75 26.35 462.96 18.57 463.2 10.8C463.23 9.88995 463.33 8.96995 463.52 8.06995C463.92 6.09995 465.37 4.92995 467.02 5.13995C468.65 5.34995 469.54 6.69995 469.5 8.77995C469.24 22.31 468.95 35.83 468.78 49.36C468.73 53.18 469.04 57.01 469.19 61.07C469.54 60.76 469.73 60.6199 469.89 60.4399C470.67 59.5799 471.38 58.6599 472.22 57.8699C476.69 53.6799 481.94 53.45 486.72 57.31C489.33 59.42 491.43 62.0099 492.89 65.0199C494.91 69.1799 496.76 73.43 498.68 77.63C500.09 80.71 501.84 83.54 504.66 85.58C505.24 86 505.74 86.54 506.19 87.09C507.55 88.72 509.31 89.06 511.28 88.75C513.6 88.39 515.71 87.53 517.48 85.93C517.6 86 517.71 86.07 517.83 86.14C517.32 87.28 516.97 88.53 516.28 89.55C513.83 93.19 510.27 94.98 505.96 95.52C498.92 96.4 493.78 93.5 490.39 87.55C488.15 83.61 486.38 79.4 484.35 75.33C483.19 73.01 481.96 70.7399 480.72 68.4599C480.51 68.0399 480.12 67.68 479.55 66.98Z" fill="var(--svg-primary, #4C2C57)"/>
<path d="M166.16 91.3801C165.93 93.1401 164.93 94.1401 162.91 94.3501C159.94 94.6601 157.44 93.4101 155.44 91.4601C152.73 88.8201 150.22 85.9601 147.77 83.0601C146.73 81.8301 146.06 80.2901 145.31 79.0401C143.64 81.2501 141.96 83.6101 140.13 85.8501C138.25 88.1701 135.95 90.0201 133.23 91.3101C128.16 93.7201 122.99 92.5601 119.43 88.2301C116.56 84.7501 115.24 80.6701 115.26 76.2601C115.31 66.2701 118.71 57.4401 125.17 49.8301C127.87 46.6501 131.34 44.6801 135.57 44.2201C138.31 43.9301 140.92 44.4601 143.38 45.6201C147.65 47.6401 151.3 50.4001 153.69 54.6001C154.9 56.7201 154.69 58.7701 153.5 60.8301C153.27 61.2301 153.22 61.8101 153.27 62.2801C153.73 66.6001 155.08 70.6801 156.61 74.7201C157.94 78.2201 159.17 81.7601 160.47 85.2701C160.89 86.3901 161.26 87.5601 161.91 88.5501C162.52 89.4901 163.39 90.3101 164.28 91.0001C164.71 91.3501 165.46 91.2601 166.16 91.3801ZM144.16 54.1401C138.92 50.8901 134.53 51.4101 130.9 55.9701C126.39 61.6301 124.07 68.1801 123.88 75.4301C123.83 77.4401 124.2 79.4101 125.24 81.1801C126.59 83.4701 127.82 83.7301 129.88 82.0701C132.22 80.1901 133.89 77.7701 135.35 75.1701C137.92 70.6101 139.2 65.6501 140.11 60.5701C140.58 57.9601 141.36 55.5101 144.16 54.1401Z" fill="var(--svg-primary, #4C2C57)"/>
<path d="M266.67 92.11C266.5 93.79 265.49 94.83 263.48 95.05C260.5 95.38 258 94.13 256 92.19C253.28 89.55 250.78 86.69 248.32 83.8C247.28 82.57 246.6 81.04 245.7 79.55C245.37 80.11 245.03 80.71 244.65 81.29C242.23 85.04 239.48 88.5 235.67 90.96C232.07 93.28 228.25 94.09 224.17 92.29C221.54 91.13 219.74 89.06 218.33 86.63C216.61 83.66 215.73 80.42 215.76 77.02C215.85 66.99 219.22 58.12 225.73 50.49C228.41 47.35 231.85 45.41 236.04 44.95C238.78 44.65 241.4 45.18 243.85 46.33C248.16 48.36 251.85 51.14 254.23 55.4C255.4 57.49 255.17 59.51 254.03 61.53C253.8 61.93 253.73 62.5 253.78 62.98C254.23 67.34 255.61 71.46 257.15 75.54C258.46 79.01 259.68 82.51 260.97 85.98C261.39 87.1 261.76 88.27 262.4 89.26C263.01 90.2 263.86 91.03 264.75 91.73C265.19 92.05 265.94 91.98 266.67 92.11ZM244.68 54.86C239.36 51.59 235 52.14 231.33 56.79C226.88 62.43 224.57 68.95 224.39 76.16C224.34 78.17 224.71 80.14 225.76 81.91C227.11 84.2 228.34 84.46 230.4 82.79C232.73 80.91 234.41 78.48 235.87 75.89C238.44 71.33 239.71 66.37 240.62 61.28C241.1 58.67 241.88 56.22 244.68 54.86Z" fill="var(--svg-primary, #4C2C57)"/>
<path d="M352.04 92.0701C351.99 93.7001 350.94 94.8101 348.92 95.0501C345.94 95.4101 343.43 94.1701 341.43 92.2301C338.68 89.5701 336.15 86.6701 333.67 83.7501C332.63 82.5301 331.97 80.9801 331.23 79.7501C329.55 81.9701 327.86 84.3301 326.03 86.5901C324.17 88.8701 321.9 90.7001 319.23 91.9901C314.12 94.4501 308.92 93.3101 305.33 88.9401C302.5 85.4901 301.17 81.4501 301.18 77.0801C301.21 67.0001 304.63 58.1001 311.19 50.4501C313.88 47.3101 317.33 45.3201 321.52 44.9901C323.05 44.8701 324.67 44.9401 326.14 45.3301C331.98 46.8901 336.57 50.2201 339.66 55.4701C340.85 57.5001 340.57 59.5001 339.47 61.4901C339.24 61.9001 339.14 62.4601 339.18 62.9301C339.63 67.2901 340.99 71.4101 342.53 75.4901C343.86 78.9901 345.08 82.5301 346.39 86.0401C346.81 87.1601 347.18 88.3301 347.83 89.3101C348.44 90.2501 349.31 91.0601 350.21 91.7501C350.65 92.0701 351.41 91.9701 352.04 92.0701ZM330.09 54.8501C324.69 51.5901 320.41 52.1401 316.73 56.8001C312.28 62.4401 309.97 68.9701 309.8 76.1701C309.75 78.2201 310.14 80.2301 311.24 82.0201C312.57 84.1801 313.74 84.4101 315.73 82.8501C318.09 80.9901 319.77 78.5701 321.24 75.9801C323.79 71.4701 325.1 66.5501 326 61.5001C326.47 58.8101 327.21 56.2601 330.09 54.8501Z" fill="var(--svg-primary, #4C2C57)"/>
<path d="M363.31 55.77C364.45 54.68 365.32 53.74 366.3 52.93C371.24 48.87 377 49.21 381.45 53.8C383.68 56.1 385.18 58.88 386.47 61.77C388.42 66.14 390.25 70.57 392.19 74.95C392.8 76.33 393.6 77.63 394.31 78.97C395.18 80.62 396.13 82.24 396.9 83.94C398.03 86.43 399.55 87.07 401.96 85.75C403.52 84.9 404.99 83.88 406.48 82.94C405.78 87.82 401.05 93.86 394.16 92.1C388.52 90.65 384.2 87.58 381.81 82.22C379.89 77.93 378.25 73.51 376.44 69.16C375.55 67.03 374.56 64.95 373.62 62.85C373.49 62.84 373.36 62.82 373.23 62.81C372.69 63.66 372.09 64.49 371.61 65.37C369.38 69.47 368.48 73.97 367.77 78.51C367.14 82.53 366.63 86.56 366.08 90.6C365.79 92.78 364.95 94.6 362.82 95.55C359.19 97.16 355.56 94.56 355.35 90.3C355.05 84.25 355.56 78.27 356.61 72.31C356.84 71.02 356.94 69.7 356.95 68.39C357.01 62.68 356.98 56.98 357.07 51.27C357.09 49.9 357.38 48.5 357.72 47.16C358.08 45.77 359.07 45.05 360.17 45.09C361.28 45.12 362.23 45.89 362.49 47.3C362.83 49.18 362.99 51.09 363.19 52.98C363.25 53.82 363.26 54.69 363.31 55.77Z" fill="var(--svg-primary, #4C2C57)"/>
<path d="M564.37 86.4599C563.84 87.1899 563.42 88.0299 562.77 88.6299C559.22 91.8899 554.8 93.2399 550.2 94.0799C544.82 95.0699 539.48 94.2999 534.09 93.8199C526.12 93.1099 518.5 85.5299 517.68 75.8199C517.02 67.9399 519.73 61.1599 524.45 55.0599C527.98 50.5099 532.16 46.7099 537.72 44.8099C542.48 43.1799 547.12 43.3599 551.27 46.5199C554.83 49.2399 556.44 53.0699 556.73 57.4199C557.37 66.9399 551.81 74.4899 542.03 77.2599C539.83 77.8799 537.48 78.0899 535.19 78.1999C534.28 78.2399 533.28 77.5899 532.43 77.0599C531.75 76.6399 531.88 76.0099 532.66 75.7299C533.82 75.3199 535.03 75.0399 536.19 74.6199C540.01 73.2199 543.36 71.1399 545.83 67.8199C548.32 64.4699 548.64 60.8599 547.04 57.0799C545.92 54.4499 544.1 53.6799 541.4 54.6099C537.92 55.8099 535.3 58.1999 533 60.9599C530.31 64.1699 528.32 67.7199 527.89 71.9699C527.42 76.5399 528.82 80.2699 532.8 82.8899C536.52 85.3399 540.28 87.6199 544.75 88.4899C550.3 89.5599 555.78 89.4699 561.19 87.6999C561.72 87.5299 562.3 87.4599 562.79 87.2199C563.25 86.9799 563.62 86.5699 564.03 86.2399C564.15 86.3099 564.26 86.3799 564.37 86.4599Z" fill="var(--svg-primary, #4C2C57)"/>
<path d="M111.96 86.4899C111.44 87.1899 111 87.9899 110.37 88.5599C107 91.6099 102.84 92.9599 98.4902 93.8399C92.9602 94.9699 87.4202 94.6099 81.9202 93.7099C70.5202 91.8299 63.5602 82.4099 65.4002 70.5999C67.1902 59.0699 73.8202 50.7899 84.4002 45.8599C88.0902 44.1399 92.1002 43.9199 95.9502 45.5599C101.45 47.8899 103.81 52.4299 104.33 58.0999C105 65.4799 101.76 70.8899 95.6902 74.7899C91.9102 77.2199 87.7302 78.4799 83.2302 78.4399C82.2602 78.4299 81.1802 78.0699 80.3502 77.5499C79.2102 76.8499 79.3502 76.2199 80.6002 75.7699C81.7602 75.3599 82.9902 75.1199 84.1402 74.6799C87.8302 73.2899 91.0702 71.2499 93.4802 68.0499C95.8302 64.9299 96.1602 61.5499 94.7702 57.9899C93.7102 55.2799 91.7802 54.4399 89.0002 55.3099C82.3602 57.3799 75.5102 66.4499 75.3702 73.3999C75.2802 77.5699 76.9702 80.7499 80.5602 82.9999C84.0902 85.2099 87.6202 87.3299 91.7602 88.2699C98.1002 89.6999 104.29 89.2399 110.4 87.1799C110.87 87.0199 111.22 86.5199 111.63 86.1799C111.72 86.2899 111.84 86.3899 111.96 86.4899Z" fill="var(--svg-primary, #4C2C57)"/>
<path d="M208.26 61.2399C207.95 70.9199 203.69 80.8699 195.95 89.3599C193.51 92.0399 190.49 93.9299 186.84 94.5499C181.53 95.4499 177.28 93.4099 173.82 89.5299C170.72 86.0499 168.93 81.8699 167.87 77.3999C165.93 69.1899 164.7 60.8799 164.83 52.4099C164.84 51.6999 164.91 50.9699 165.06 50.2799C165.38 48.8199 166.43 47.9299 167.69 47.9299C168.91 47.9299 169.95 48.7699 170.22 50.2399C170.56 52.0799 170.74 53.9499 170.99 55.8099C171.87 62.6299 173.38 69.3199 175.66 75.7999C176.4 77.9199 177.61 79.8999 178.84 81.7999C179.51 82.8299 180.57 83.6799 181.6 84.3899C183.02 85.3599 184.57 85.2599 185.95 84.1999C186.67 83.6399 187.41 83.0499 187.98 82.3499C192.83 76.2799 195.59 69.4199 196.07 61.6299C196.2 59.4999 195.57 57.8799 194.1 56.3899C192.28 54.5399 191.71 52.2299 192.51 49.7499C193.33 47.1999 195.18 45.6099 197.78 45.0099C201.2 44.2299 204.56 46.0199 206.34 49.4899C207.63 51.9499 208.27 55.2699 208.26 61.2399Z" fill="var(--svg-primary, #4C2C57)"/>
<path d="M454.03 77.9501C453.59 79.3401 453.42 80.9101 452.65 82.0801C451.76 83.4401 450.45 84.6001 449.12 85.5901C444.12 89.3301 438.28 91.2801 432.4 93.1501C429.53 94.0601 426.65 94.5401 423.67 93.9601C416.6 92.5901 410.16 85.9001 409.11 78.3401C407.62 67.6901 410.89 58.5401 418.85 51.2401C423.62 46.8601 429.33 46.5701 435.28 48.2301C438.8 49.2101 441.92 50.9601 444.6 53.4501C445.15 53.9601 445.69 54.5401 446.03 55.1901C447.25 57.5301 445.53 60.1701 442.93 59.8201C440.57 59.5001 438.27 58.7401 435.91 58.3401C433.87 58.0001 431.79 57.7201 429.74 57.7601C428.59 57.7801 427.21 58.2301 426.35 58.9701C421.3 63.3601 419.27 69.0101 420.16 75.5901C420.63 79.1001 423.23 80.9801 426.34 82.1101C434.59 85.0801 442.74 84.5301 450.73 81.1201C451.57 80.7601 452.21 79.8801 452.85 79.1601C453.18 78.8001 453.31 78.2701 453.53 77.8101C453.7 77.8601 453.87 77.9101 454.03 77.9501Z" fill="var(--svg-primary, #4C2C57)"/>
<path d="M301.2 87.7699C301.8 89.4599 301.29 90.9999 300.05 91.9499C298.12 93.4399 295.87 94.2099 293.47 94.1999C290.56 94.1999 287.62 94.1499 284.76 93.6899C280.33 92.9899 277.49 89.8499 275.07 86.3999C271.99 82.0099 270.45 76.9799 269.44 71.7699C267.3 60.7399 267.89 49.7499 270.31 38.8699C271.91 31.7199 273.88 24.6499 275.95 17.6299C277.1 13.7299 278.87 10.0199 281.53 6.84994C282.34 5.88994 283.29 4.94994 284.36 4.33994C285.05 3.94994 286.14 3.95994 286.95 4.16994C287.98 4.43994 288.31 5.61994 287.77 6.51994C284 12.7099 282.06 19.5499 280.53 26.5499C278.57 35.4799 277 44.4699 277.09 53.6599C277.15 60.0699 277.92 66.3899 279.93 72.5099C281.37 76.9199 283.56 80.7999 287.46 83.5899C289.58 85.1099 291.15 87.4099 293.76 88.2699C295.3 88.7799 296.88 89.2299 298.46 89.5599C299.69 89.8299 301.01 89.9299 301.2 87.7699Z" fill="var(--svg-primary, #4C2C57)"/>
</svg>
