<svg width="174" height="30" viewBox="0 0 174 30" fill="none" xmlns="http://www.w3.org/2000/svg">
<g clip-path="url(#clip0_1789_3687)">
<path d="M86.9718 0.901367C114.192 0.901367 141.412 0.901367 168.633 0.901367C169.615 0.901367 170.531 1.14372 171.324 1.74959C172.244 2.4506 172.826 3.36591 172.996 4.52257C173.027 4.71938 173.045 4.91819 173.047 5.11743C173.047 11.5019 173.047 17.8858 173.047 24.269C173.047 26.3289 171.432 28.1686 169.396 28.429C169.124 28.4633 168.849 28.4807 168.575 28.481C114.176 28.481 59.7768 28.481 5.37659 28.481C4.04868 28.481 2.88902 28.0554 1.98872 27.043C1.40492 26.4051 1.04217 25.5959 0.954238 24.7357C0.916095 24.3306 0.89838 23.9238 0.901162 23.5169C0.901162 17.4249 0.901162 11.3331 0.901162 5.24161C0.889612 4.21387 1.24835 3.21632 1.9118 2.43132C2.57525 1.64633 3.49906 1.12635 4.51435 0.966461C4.79395 0.923205 5.07667 0.903441 5.35957 0.907376C32.564 0.90337 59.768 0.901367 86.9718 0.901367ZM12.5099 15.1449C12.4918 20.1431 16.5366 24.258 21.5568 24.3371C22.7768 24.3551 23.9882 24.1307 25.1207 23.6767C26.2532 23.2228 27.2843 22.5485 28.1541 21.6929C29.0239 20.8373 29.7151 19.8174 30.1876 18.6925C30.6599 17.5676 30.9043 16.3599 30.9063 15.1399C30.9063 10.1948 26.9496 5.94462 21.7161 5.93761C20.5056 5.93257 19.3061 6.1673 18.1868 6.62823C17.0675 7.08916 16.0506 7.76719 15.1947 8.62318C14.3388 9.47917 13.6609 10.4962 13.2 11.6155C12.7393 12.7349 12.5046 13.9344 12.5099 15.1449ZM96.9542 12.4821C96.9382 12.463 96.9301 12.457 96.9281 12.449C96.9161 12.3839 96.9041 12.3188 96.8941 12.2487C96.8724 12.0903 96.7958 11.9446 96.6775 11.8369C96.5592 11.7293 96.4069 11.6666 96.2472 11.6599C95.7645 11.6298 95.462 11.9283 95.462 12.445C95.462 14.0553 95.462 15.6656 95.462 17.2759C95.4601 17.3596 95.4668 17.4431 95.4821 17.5253C95.5512 17.8698 95.8316 18.0771 96.2111 18.0711C96.3751 18.0738 96.5346 18.0168 96.6597 17.9107C96.7848 17.8046 96.8671 17.6566 96.8911 17.4943C96.9077 17.3705 96.9154 17.2456 96.9141 17.1207C96.9141 16.1861 96.9141 15.2513 96.9141 14.3167C96.9141 13.2932 97.6832 12.6813 98.6797 12.9027C98.9991 12.9738 99.2355 13.149 99.3336 13.4555C99.4188 13.7072 99.4671 13.97 99.4768 14.2356C99.4928 15.237 99.4768 16.2384 99.4868 17.2399C99.4836 17.3972 99.5122 17.5535 99.5709 17.6995C99.7081 18 100.056 18.1392 100.399 18.0581C100.558 18.0172 100.699 17.9229 100.796 17.7908C100.894 17.6587 100.943 17.4971 100.935 17.333C100.935 16.3226 100.935 15.3131 100.935 14.3037C100.935 13.2942 101.721 12.6753 102.716 12.9017C103.017 12.9708 103.25 13.13 103.34 13.4194C103.431 13.6945 103.485 13.981 103.497 14.2706C103.515 15.2801 103.497 16.2905 103.505 17.3C103.505 17.7526 103.782 18.0551 104.189 18.0671C104.657 18.0811 104.953 17.7977 104.955 17.315C104.955 16.2545 104.971 15.1949 104.949 14.1354C104.938 13.7276 104.883 13.3222 104.786 12.9257C104.671 12.437 104.449 11.9803 103.959 11.765C103.146 11.4065 102.331 11.4035 101.589 11.9463C101.274 12.1766 101.016 12.4851 100.746 12.7474C100.331 11.3624 98.21 11.0079 96.9542 12.4821ZM137.423 14.3918C137.499 14.4919 137.562 14.566 137.624 14.6452C138.41 15.6806 139.195 16.7154 139.981 17.7496C140.118 17.9309 140.281 18.0611 140.516 18.0741C140.671 18.0904 140.827 18.0612 140.965 17.9901C141.104 17.9189 141.219 17.8089 141.296 17.6735C141.473 17.3731 141.407 17.0726 141.21 16.8083C140.833 16.2985 140.448 15.7958 140.066 15.2901L138.543 13.2732C138.6 13.2291 138.65 13.1991 138.692 13.159C139.513 12.3772 140.334 11.5941 141.152 10.8096C141.446 10.5252 141.452 10.1537 141.186 9.84923C140.941 9.56883 140.585 9.53578 140.267 9.76911C140.174 9.83999 140.087 9.91729 140.005 10.0005L137.051 12.9187C136.813 13.153 136.57 13.3803 136.298 13.6417C136.298 12.5401 136.298 11.5016 136.298 10.4601C136.298 9.96539 136.022 9.68199 135.553 9.68299C135.083 9.68399 134.79 9.9714 134.789 10.4491C134.789 12.7344 134.789 15.0197 134.789 17.305C134.789 17.7917 135.078 18.0731 135.549 18.0711C136.019 18.0691 136.295 17.7837 136.298 17.295C136.298 16.7452 136.298 16.1934 136.298 15.6436C136.293 15.556 136.32 15.4695 136.372 15.3992C136.707 15.0678 137.055 14.7433 137.423 14.3918ZM61.1638 17.4402C61.2739 17.5253 61.338 17.5754 61.4021 17.6234C62.5588 18.4847 64.098 18.3745 65.0654 17.3611C66.2671 16.1033 66.3031 13.809 65.1555 12.4941C64.2191 11.4225 62.4516 11.1051 61.2499 12.3168C61.2252 12.3361 61.1987 12.3529 61.1708 12.3669C61.0826 11.9313 60.8783 11.7069 60.5499 11.6659C60.0492 11.6058 59.7117 11.9152 59.7117 12.445C59.7117 14.8632 59.7117 17.2819 59.7117 19.7014C59.7087 19.7515 59.7087 19.8016 59.7117 19.8516C59.7346 20.0231 59.8183 20.1807 59.9476 20.2956C60.0769 20.4105 60.2432 20.4752 60.4162 20.4779C60.5891 20.4806 60.7574 20.4211 60.8902 20.3102C61.023 20.1992 61.1115 20.0443 61.1397 19.8737C61.1544 19.7497 61.1611 19.6249 61.1597 19.5001C61.1648 18.8352 61.1638 18.1682 61.1638 17.4402ZM68.6385 17.4522L68.8608 17.6214C70.1106 18.5538 71.758 18.3475 72.7204 17.1367C73.5956 16.0352 73.6878 14.1985 72.9577 12.9607C72.0684 11.4586 69.9985 10.9829 68.6756 12.3479C68.6685 12.3559 68.6455 12.3479 68.6295 12.3479C68.5374 11.9263 68.3381 11.7069 68.0126 11.6669C67.5119 11.6048 67.1714 11.9152 67.1714 12.443C67.1714 14.6782 67.1714 16.9147 67.1714 19.1526C67.1714 19.386 67.1604 19.6203 67.1784 19.8536C67.1896 20.0135 67.2573 20.1641 67.3695 20.2786C67.4815 20.3931 67.6307 20.4639 67.7903 20.4785C68.1428 20.5206 68.4622 20.3443 68.5664 20.0259C68.6071 19.882 68.6263 19.7328 68.6235 19.5833C68.6235 18.9654 68.6235 18.3485 68.6235 17.7316C68.6255 17.6495 68.6325 17.5704 68.6385 17.4522ZM48.2772 18.2013C49.0974 18.2073 49.8655 18.026 50.5295 17.5193C51.3016 16.9274 51.5449 16.1273 51.4127 15.1909C51.2896 14.3137 50.7398 13.8029 49.9436 13.5266C49.5751 13.3994 49.1896 13.3263 48.813 13.2161C48.3123 13.0759 47.7996 12.9537 47.3109 12.7775C46.9684 12.6543 46.8051 12.3539 46.7991 11.9873C46.7929 11.8231 46.8351 11.6608 46.9204 11.5203C47.0056 11.3799 47.1303 11.2675 47.2788 11.1972C47.4324 11.1134 47.5974 11.0524 47.7685 11.0159C48.6698 10.8267 49.4629 11.1041 50.202 11.5958C50.272 11.6484 50.352 11.686 50.437 11.7065C50.5222 11.7271 50.6105 11.7301 50.6967 11.7152C50.783 11.7004 50.8654 11.6682 50.9387 11.6204C51.0121 11.5726 51.0749 11.5105 51.1233 11.4376C51.3587 11.1131 51.2796 10.6935 50.923 10.3991C50.3022 9.88929 49.5721 9.64594 48.787 9.57884C47.9027 9.50273 47.0605 9.64093 46.3074 10.1597C44.9975 11.061 45.0055 13.3553 46.6329 14.0703C47.0637 14.2455 47.5108 14.3773 47.9678 14.4639C48.5206 14.5841 49.0904 14.6472 49.5701 14.9756C50.1449 15.3672 50.1409 16.0902 49.5701 16.4718C48.9993 16.8533 48.3493 16.8724 47.6924 16.7452C47.1857 16.65 46.7701 16.3786 46.3725 16.0682C46.2564 15.9707 46.1109 15.9151 45.9594 15.9104C45.8079 15.9057 45.6592 15.9521 45.5373 16.0422C45.4134 16.1297 45.3218 16.2556 45.2765 16.4004C45.2313 16.5452 45.235 16.7008 45.2869 16.8433C45.3557 17.0031 45.4582 17.1463 45.5874 17.2629C46.3415 17.9619 47.2678 18.1963 48.2772 18.2013ZM107.577 15.3722H107.855C109.064 15.3722 110.273 15.3722 111.483 15.3722C111.978 15.3722 112.263 15.0718 112.236 14.5861C112.227 14.3957 112.202 14.2063 112.161 14.0203C111.696 12.0074 109.432 10.7666 107.503 12.0805C106.532 12.7424 106.14 13.7338 106.115 14.8775C106.094 15.7788 106.352 16.5799 106.984 17.2529C108.074 18.4106 110.124 18.4917 111.384 17.6224C111.507 17.5371 111.615 17.4319 111.703 17.311C111.772 17.2164 111.813 17.1035 111.819 16.9863C111.825 16.8691 111.797 16.7528 111.736 16.6515C111.677 16.5504 111.589 16.4689 111.484 16.417C111.379 16.3651 111.261 16.3452 111.145 16.3596C110.988 16.3796 110.838 16.4328 110.704 16.5158C110.287 16.7825 109.796 16.9095 109.302 16.8784C108.429 16.8413 107.688 16.1994 107.577 15.3722ZM77.4261 18.2023C79.3289 18.2634 80.7389 16.9004 80.808 14.9316C80.8292 14.5015 80.7643 14.0715 80.6171 13.6669C80.4698 13.2623 80.2433 12.891 79.9507 12.5752C79.6579 12.2593 79.3051 12.0051 78.913 11.8274C78.5207 11.6499 78.0969 11.5523 77.6665 11.5407C75.7848 11.4716 74.3367 12.8336 74.2616 14.7453C74.1925 16.6681 75.5384 18.1412 77.4261 18.2023ZM119.587 11.5407C117.725 11.5908 116.382 13.0519 116.423 14.9806C116.465 16.8834 117.907 18.2563 119.798 18.2023C121.643 18.1492 123.009 16.7001 122.967 14.8434C122.923 12.8796 121.501 11.4896 119.589 11.5407H119.587ZM145.023 11.5407C143.162 11.5928 141.819 13.0549 141.863 14.9826C141.907 16.8854 143.351 18.2584 145.241 18.2023C147.085 18.1472 148.451 16.7001 148.406 14.8404C148.357 12.8756 146.935 11.4876 145.023 11.5407ZM125.623 12.5321C125.607 12.414 125.598 12.3398 125.587 12.2667C125.568 12.104 125.491 11.9536 125.37 11.8432C125.249 11.7328 125.093 11.6699 124.928 11.6659C124.467 11.6428 124.156 11.9333 124.155 12.412C124.151 14.0556 124.151 15.6987 124.155 17.341C124.155 17.4158 124.163 17.4904 124.18 17.5634C124.263 17.8988 124.552 18.0941 124.936 18.0781C125.092 18.0734 125.241 18.0153 125.358 17.9138C125.475 17.8121 125.554 17.6732 125.581 17.5203C125.601 17.3877 125.609 17.2537 125.607 17.1197C125.607 16.1603 125.601 15.201 125.607 14.2416C125.617 13.166 126.829 12.4841 127.762 13.0288C127.902 13.1033 128.013 13.2215 128.079 13.3653C128.191 13.6667 128.258 13.9828 128.279 14.3037C128.304 15.3051 128.286 16.3065 128.289 17.308C128.289 17.7727 128.567 18.0721 128.99 18.0781C129.443 18.0851 129.734 17.8017 129.737 17.33C129.737 16.2705 129.759 15.211 129.729 14.1525C129.711 13.696 129.641 13.243 129.52 12.8025C129.379 12.2738 129.056 11.8612 128.509 11.6809C128.04 11.5227 127.537 11.4956 127.054 11.6028C126.482 11.73 126.044 12.0755 125.623 12.5321ZM58.1364 14.0733H58.1835C58.1835 13.5065 58.1835 12.9397 58.1835 12.3709C58.185 12.2748 58.1668 12.1794 58.1298 12.0907C58.0928 12.002 58.0381 11.9217 57.9689 11.8551C57.8997 11.7884 57.8174 11.7366 57.7274 11.703C57.6374 11.6695 57.5414 11.6548 57.4454 11.6599C57.0218 11.6679 56.7364 11.9683 56.7344 12.427C56.7344 13.4695 56.7344 14.512 56.7344 15.5545C56.7344 16.1984 56.468 16.629 55.9853 16.7882C55.6351 16.9084 55.2549 16.9084 54.9048 16.7882C54.4151 16.622 54.1627 16.2024 54.1587 15.5304C54.1587 14.563 54.1587 13.5957 54.1587 12.6263C54.1599 12.5098 54.1535 12.3934 54.1397 12.2778C54.1224 12.097 54.0342 11.9305 53.8943 11.8146C53.7545 11.6988 53.5744 11.6431 53.3936 11.6599C53.0171 11.6729 52.7136 11.9383 52.7126 12.3198C52.7126 13.5376 52.6836 14.7563 52.7457 15.9711C52.7613 16.4776 52.949 16.9637 53.2776 17.3493C53.6064 17.7351 54.0566 17.9974 54.5543 18.0931C54.9954 18.1762 55.4455 18.2015 55.8932 18.1682C57.0949 18.1011 58.0052 17.2669 58.1304 16.0652C58.1925 15.4113 58.1364 14.7403 58.1364 14.0733ZM156.684 11.77C156.684 11.5888 156.684 11.4315 156.684 11.2753C156.688 11.1923 156.699 11.1098 156.719 11.029C156.801 10.6735 157.005 10.4922 157.368 10.4912C157.567 10.4999 157.766 10.524 157.961 10.5633C158.361 10.6224 158.625 10.4902 158.721 10.1727C158.836 9.79916 158.694 9.44465 158.306 9.33349C157.972 9.23767 157.624 9.19907 157.277 9.21932C155.94 9.30344 155.174 10.1727 155.245 11.3825C155.253 11.5046 155.245 11.6268 155.245 11.77C155.025 11.77 154.834 11.77 154.644 11.77C154.196 11.777 153.911 12.0474 153.919 12.453C153.927 12.8586 154.209 13.1019 154.647 13.1059C154.847 13.1059 155.039 13.1059 155.248 13.1059V13.4454C155.248 14.7213 155.242 15.9971 155.255 17.2729C155.257 17.4618 155.309 17.6469 155.406 17.8087C155.568 18.0651 155.907 18.1382 156.207 18.038C156.348 17.9946 156.47 17.906 156.555 17.7863C156.64 17.6664 156.683 17.5219 156.678 17.3751C156.678 16.0492 156.678 14.7233 156.678 13.3974V13.1059C157.037 13.1059 157.368 13.1059 157.699 13.1059C158.16 13.1059 158.441 12.8576 158.448 12.451C158.455 12.0444 158.166 11.773 157.697 11.77C157.371 11.774 157.04 11.775 156.684 11.775V11.77ZM87.8261 13.111V13.4114C87.8261 14.4709 87.8261 15.5294 87.8261 16.589C87.8261 16.9895 87.8992 17.3781 88.2016 17.6695C88.6863 18.1352 89.853 18.2203 90.4128 17.8448C90.7302 17.6325 90.8284 17.32 90.6782 17.0005C90.551 16.7302 90.3777 16.6781 89.9571 16.7892C89.5035 16.9104 89.2701 16.7332 89.2691 16.2585C89.2691 15.2741 89.2691 14.2896 89.2691 13.3052V13.113C89.5565 13.113 89.8229 13.13 90.0853 13.1069C90.2491 13.0951 90.4078 13.0444 90.548 12.9587C90.7823 12.8035 90.8484 12.4981 90.7483 12.2187C90.7037 12.0871 90.618 11.9734 90.5038 11.8942C90.3898 11.8151 90.2532 11.7747 90.1144 11.779C89.835 11.771 89.5546 11.779 89.2661 11.779C89.2661 11.4916 89.2721 11.2413 89.2661 10.9919C89.2632 10.8006 89.1844 10.6185 89.0471 10.4853C88.9098 10.3521 88.7253 10.279 88.5341 10.2819C88.3428 10.2848 88.1606 10.3636 88.0275 10.5009C87.8943 10.6382 87.8212 10.8227 87.8241 11.0139C87.8241 11.2623 87.8241 11.5147 87.8241 11.779C87.6238 11.779 87.4375 11.772 87.2562 11.779C86.8557 11.7971 86.5913 12.0735 86.5963 12.449C86.5946 12.5369 86.6108 12.6244 86.6439 12.7058C86.6769 12.7873 86.7261 12.8613 86.7886 12.9233C86.851 12.9852 86.9254 13.0338 87.0071 13.0663C87.0888 13.0987 87.1763 13.1143 87.2643 13.112C87.4415 13.119 87.6168 13.111 87.8261 13.111ZM83.4648 12.465C83.4448 12.3569 83.4338 12.3018 83.4237 12.2467C83.3995 12.0844 83.3179 11.9361 83.1937 11.8287C83.0694 11.7215 82.9109 11.6623 82.7468 11.6619C82.2911 11.6479 81.9937 11.9453 81.9927 12.43C81.9927 14.0563 81.9927 15.6823 81.9927 17.308C81.9918 17.3829 81.9985 17.4577 82.0127 17.5313C82.0828 17.8758 82.3632 18.0831 82.7428 18.0761C82.9066 18.0786 83.0658 18.0215 83.1907 17.9154C83.3156 17.8092 83.3977 17.6614 83.4217 17.4993C83.4384 17.3755 83.4461 17.2506 83.4448 17.1257C83.4448 16.2331 83.4448 15.3409 83.4448 14.4489C83.4326 14.0291 83.5612 13.6174 83.8103 13.2792C83.9419 13.0902 84.1305 12.9483 84.3485 12.8742C84.5666 12.8002 84.8025 12.7979 85.022 12.8676C85.1102 12.8926 85.1963 12.9257 85.2844 12.9487C85.685 13.0489 86.0205 12.8886 86.1366 12.5401C86.2728 12.1315 86.1056 11.754 85.699 11.6148C85.5255 11.5579 85.3424 11.5354 85.1602 11.5487C84.4863 11.5948 83.9064 11.8471 83.4648 12.465ZM159.253 14.8685C159.253 15.6776 159.253 16.4868 159.253 17.295C159.253 17.7847 159.53 18.0731 159.971 18.0741C160.411 18.0751 160.703 17.7827 160.704 17.284C160.704 16.1744 160.704 15.0658 160.704 13.9562C160.704 13.4394 160.711 12.9227 160.704 12.4049C160.696 11.9182 160.369 11.6248 159.903 11.6639C159.508 11.6969 159.26 11.9873 159.258 12.442C159.249 13.2532 159.253 14.0613 159.253 14.8705V14.8685ZM151.174 15.1218C151.524 15.1218 151.875 15.1218 152.223 15.1218C152.652 15.1218 152.956 14.8404 152.969 14.4469C152.976 14.3507 152.963 14.2543 152.931 14.1633C152.899 14.0722 152.849 13.9887 152.784 13.9175C152.719 13.8463 152.64 13.7891 152.553 13.7493C152.465 13.7094 152.37 13.6879 152.274 13.6858C151.55 13.6658 150.826 13.6658 150.102 13.6858C150.005 13.6853 149.909 13.7049 149.821 13.7435C149.732 13.7821 149.653 13.8387 149.588 13.9099C149.523 13.981 149.473 14.0649 149.442 14.1564C149.412 14.2479 149.4 14.3447 149.409 14.4409C149.425 14.8414 149.723 15.1178 150.15 15.1218C150.491 15.1218 150.833 15.1218 151.174 15.1218ZM160.739 10.1797C160.739 9.60287 160.59 9.45767 159.989 9.45566C159.388 9.45366 159.221 9.61689 159.221 10.1717C159.221 10.7466 159.373 10.8918 159.977 10.8918C160.581 10.8918 160.739 10.7496 160.739 10.1797Z" fill="#2C233D"/>
<path d="M64.6467 14.9215C64.5535 15.237 64.4935 15.6045 64.3402 15.923C64.2199 16.2071 64.0177 16.4489 63.7595 16.6178C63.5012 16.7867 63.1987 16.8749 62.8902 16.8713C62.5833 16.8899 62.2777 16.8184 62.0109 16.6658C61.7441 16.5132 61.5276 16.286 61.388 16.0121C61.1899 15.6756 61.0826 15.2936 61.0764 14.9031C61.0703 14.5127 61.1656 14.1275 61.353 13.7849C61.6844 13.142 62.2412 12.8255 62.9723 12.8746C63.7033 12.9237 64.174 13.3342 64.4294 13.9932C64.5395 14.2676 64.5696 14.572 64.6467 14.9215Z" fill="#2C233D"/>
<path d="M72.1035 14.916C72.0114 15.2325 71.9513 15.599 71.8031 15.9225C71.6833 16.2056 71.4823 16.4469 71.2254 16.6159C70.9686 16.7849 70.6674 16.8739 70.36 16.8718C70.049 16.8915 69.739 16.8187 69.469 16.6628C69.1991 16.5069 68.9813 16.2748 68.8428 15.9956C68.6503 15.6613 68.5466 15.2833 68.5417 14.8976C68.5368 14.5119 68.6308 14.1314 68.8148 13.7924C69.1453 13.1485 69.7011 12.829 70.4321 12.8761C71.1632 12.9231 71.6338 13.3327 71.8922 13.9907C72.0034 14.2631 72.0294 14.5665 72.1035 14.916Z" fill="#2C233D"/>
<path d="M110.68 14.1505H107.613C107.594 13.4685 108.242 12.9047 109.084 12.8697C109.926 12.8346 110.642 13.3984 110.68 14.1505Z" fill="#2C233D"/>
<path d="M75.709 14.9213C75.734 14.2203 75.9323 13.6555 76.4521 13.2419C76.6403 13.0923 76.8576 12.9834 77.0902 12.9222C77.3227 12.8611 77.5654 12.8489 77.803 12.8867C78.0404 12.9243 78.2676 13.011 78.4698 13.1411C78.672 13.2711 78.845 13.4419 78.9777 13.6425C79.4413 14.3435 79.4784 15.0986 79.1269 15.8537C78.9704 16.1984 78.7061 16.4832 78.3737 16.6646C78.0413 16.8462 77.659 16.9148 77.2842 16.8601C76.8987 16.7982 76.5429 16.6151 76.2683 16.3375C75.9937 16.0599 75.8146 15.702 75.7571 15.3159C75.737 15.1667 75.724 15.0215 75.709 14.9213Z" fill="#2C233D"/>
<path d="M117.87 14.921C117.894 14.22 118.091 13.6562 118.61 13.2416C118.796 13.0926 119.01 12.9835 119.241 12.9213C119.471 12.8592 119.711 12.8451 119.948 12.8802C120.183 12.9152 120.409 12.9987 120.612 13.1251C120.814 13.2516 120.987 13.4184 121.122 13.6151C121.606 14.3272 121.645 15.0973 121.278 15.8684C121.119 16.2079 120.856 16.4873 120.526 16.6652C120.197 16.8431 119.819 16.91 119.449 16.8558C119.064 16.7945 118.71 16.613 118.435 16.3373C118.161 16.0617 117.981 15.7061 117.922 15.3216C117.898 15.1704 117.885 15.0212 117.87 14.921Z" fill="#2C233D"/>
<path d="M143.306 14.9216C143.331 14.2206 143.527 13.6568 144.047 13.2422C144.233 13.0933 144.447 12.9845 144.678 12.9224C144.908 12.8604 145.148 12.8466 145.385 12.8818C145.62 12.9169 145.846 13.0003 146.048 13.1267C146.25 13.2532 146.424 13.42 146.558 13.6167C147.042 14.3297 147.081 15.0998 146.714 15.8709C146.555 16.2105 146.292 16.4899 145.962 16.6677C145.633 16.8454 145.254 16.9119 144.884 16.8574C144.499 16.796 144.145 16.6142 143.87 16.3383C143.596 16.0624 143.417 15.7066 143.358 15.3222C143.334 15.1699 143.321 15.0217 143.306 14.9216Z" fill="#2C233D"/>
<path d="M12.5103 15.1449C12.5051 13.9344 12.7398 12.7349 13.2005 11.6155C13.6614 10.4962 14.3393 9.47913 15.1952 8.62315C16.051 7.76716 17.068 7.08914 18.1873 6.6282C19.3066 6.16726 20.506 5.93255 21.7166 5.93758C26.9501 5.94459 30.9088 10.1947 30.9068 15.1399C30.9045 16.3598 30.66 17.5671 30.1874 18.6918C29.7149 19.8165 29.0237 20.8361 28.1539 21.6915C27.2841 22.5469 26.2531 23.2211 25.1208 23.6749C23.9883 24.1287 22.7771 24.3531 21.5573 24.3351C16.5371 24.259 12.4923 20.143 12.5103 15.1449ZM25.506 17.7676C25.6262 17.7676 25.7504 17.7726 25.8735 17.7676C27.0152 17.7136 28.0296 17.358 28.7367 16.4177C29.5759 15.3031 29.6139 14.0683 29.0231 12.8516C28.4322 11.6348 27.3817 11.074 26.0618 11.066C22.708 11.046 19.3522 11.059 16.0014 11.06C15.6088 11.06 15.4235 11.2463 15.4235 11.6468C15.4235 13.5996 15.4235 15.5517 15.4235 17.5033C15.4235 17.7867 15.4295 18.0701 15.4305 18.3535C15.4305 19.3549 16.0314 19.9558 17.0388 19.9558C19.257 19.9508 21.4762 19.9377 23.6944 19.9287C24.4745 19.9287 25.1014 19.4841 25.3268 18.737C25.4044 18.4175 25.4643 18.0938 25.506 17.7676Z" fill="#F2CBD4"/>
<path d="M25.5053 17.7675C25.4636 18.0938 25.4037 18.4174 25.3261 18.7369C25.1008 19.484 24.4739 19.9256 23.6937 19.9286C21.4755 19.9377 19.2564 19.9507 17.0382 19.9557C16.0267 19.9557 15.4359 19.3548 15.4299 18.3534C15.4299 18.07 15.4229 17.7866 15.4229 17.5032C15.4229 15.5511 15.4229 13.599 15.4229 11.6467C15.4229 11.2462 15.6081 11.0599 16.0007 11.0599C19.3545 11.0599 22.7103 11.0459 26.0611 11.0659C27.381 11.0739 28.4376 11.6467 29.0224 12.8515C29.6072 14.0562 29.5752 15.303 28.736 16.4176C28.029 17.358 27.0145 17.7135 25.8729 17.7675C25.7497 17.7725 25.6255 17.7675 25.5053 17.7675ZM20.4581 13.7968C20.402 13.7498 20.3509 13.7087 20.3029 13.6656C20.1022 13.4807 19.8644 13.3404 19.6056 13.2541C19.3466 13.1677 19.0722 13.1374 18.8007 13.1649C18.0877 13.226 17.599 13.7267 17.5679 14.4368C17.5479 14.712 17.5869 14.9884 17.6822 15.2475C17.7775 15.5065 17.9271 15.7422 18.1207 15.9389C18.8217 16.6399 19.5458 17.3189 20.2578 18.0089C20.39 18.1371 20.5042 18.1491 20.6424 18.0139C21.2833 17.382 21.9342 16.7601 22.5731 16.1252C22.9056 15.7937 23.192 15.4302 23.3022 14.9525C23.5465 13.892 22.7013 12.9817 21.6268 13.1499C21.1681 13.23 20.7996 13.4794 20.4581 13.7968ZM25.5103 12.7834V16.0381C26.2905 16.1983 26.9955 15.983 27.351 15.4312C27.7456 14.8223 27.8127 14.1564 27.4511 13.5124C27.0305 12.7453 26.2895 12.7183 25.5103 12.7834Z" fill="#2C233D"/>
<path d="M20.4576 13.797C20.7991 13.4796 21.1676 13.2302 21.6313 13.1561C22.7078 12.9869 23.551 13.8972 23.3067 14.9587C23.1965 15.4364 22.9061 15.7999 22.5776 16.1314C21.9387 16.7663 21.2878 17.3882 20.6469 18.0201C20.5087 18.1553 20.3945 18.1433 20.2623 18.0151C19.5503 17.3251 18.8263 16.6471 18.1252 15.9441C17.9316 15.7474 17.7822 15.5117 17.6868 15.2526C17.5915 14.9937 17.5525 14.7173 17.5725 14.442C17.6025 13.7319 18.0922 13.2312 18.8052 13.1701C19.0768 13.1425 19.3511 13.1729 19.6101 13.2593C19.8691 13.3456 20.1067 13.4859 20.3074 13.6709C20.3504 13.7089 20.4015 13.75 20.4576 13.797Z" fill="#F29CC2"/>
<path d="M25.5107 12.7834C26.2899 12.7213 27.0309 12.7453 27.4555 13.5124C27.813 14.1564 27.746 14.8223 27.3554 15.4312C26.9999 15.983 26.2949 16.1983 25.5147 16.0381L25.5107 12.7834Z" fill="#F2CBD4"/>
<path d="M174 4.50647V24.8858C173.96 24.9393 173.927 24.997 173.9 25.058C173.752 25.5237 173.665 26.0184 173.453 26.452C172.711 27.9732 171.495 28.9165 169.838 29.2851C169.767 29.3111 169.699 29.3472 169.638 29.3922H4.30619C4.16899 29.3382 4.0348 29.2721 3.89359 29.231C1.92276 28.6592 0.648932 27.4064 0.1392 25.4015C0.103227 25.308 0.0565144 25.2189 0 25.1361V24.9358C0.00500719 24.9308 0.016023 24.9238 0.0150216 24.9198C0.0110454 24.908 0.00601791 24.8967 0 24.8858V4.50647C0.00500719 4.50647 0.016023 4.49446 0.0150216 4.49045C0.0110454 4.47867 0.00601791 4.46728 0 4.4564V4.25612C0.0589049 4.16574 0.106653 4.06856 0.142204 3.9667C0.333284 3.11716 0.745034 2.33303 1.33592 1.69343C2.08221 0.873435 3.07221 0.314894 4.15998 0.100144C4.21305 0.0891281 4.26012 0.0350504 4.30619 0H169.594C169.648 0.0389227 169.706 0.0724621 169.767 0.100144C170.23 0.256368 170.727 0.346498 171.152 0.572823C172.674 1.38299 173.611 2.6428 173.903 4.36026C173.912 4.41234 173.967 4.4574 174 4.50647ZM86.975 0.901295C59.7692 0.901295 32.5641 0.903298 5.3597 0.907304C5.0768 0.903369 4.79408 0.923132 4.51449 0.966388C3.4992 1.12628 2.57538 1.64626 1.91194 2.43124C1.24848 3.21624 0.889744 4.21379 0.901295 5.24153C0.901295 11.3336 0.901295 17.4253 0.901295 23.5168C0.898513 23.9237 0.916228 24.3305 0.954371 24.7355C1.04245 25.5968 1.40593 26.4066 1.99086 27.0449C2.89216 28.0573 4.05082 28.4829 5.37873 28.4829C59.7776 28.4829 114.177 28.4829 168.577 28.4829C168.852 28.4826 169.126 28.4652 169.398 28.4308C171.434 28.1705 173.048 26.3278 173.049 24.2709C173.049 17.887 173.049 11.5032 173.049 5.11936C173.047 4.92012 173.03 4.7213 172.999 4.5245C172.827 3.36784 172.246 2.45453 171.326 1.75152C170.533 1.15065 169.617 0.904299 168.635 0.903298C141.413 0.901963 114.192 0.901295 86.972 0.901295H86.975Z" fill="#F2CBD4"/>
<path d="M96.9538 12.4817C98.2096 11.0076 100.331 11.3621 100.748 12.7541C101.019 12.4937 101.277 12.1853 101.591 11.9529C102.334 11.4102 103.149 11.4132 103.962 11.7717C104.452 11.987 104.674 12.4436 104.789 12.9323C104.885 13.3288 104.94 13.7343 104.951 14.1421C104.973 15.2016 104.961 16.2611 104.957 17.3217C104.957 17.8043 104.657 18.0878 104.191 18.0737C103.785 18.0617 103.509 17.7593 103.507 17.3066C103.507 16.2972 103.517 15.2867 103.499 14.2773C103.487 13.9877 103.434 13.7012 103.343 13.4261C103.253 13.1366 103.02 12.9774 102.719 12.9083C101.724 12.678 100.943 13.2859 100.938 14.3103C100.933 15.3348 100.938 16.3292 100.938 17.3397C100.946 17.5037 100.896 17.6653 100.798 17.7974C100.701 17.9295 100.561 18.024 100.402 18.0647C100.058 18.1458 99.7108 18.0096 99.5736 17.7062C99.5148 17.5602 99.4862 17.4039 99.4894 17.2465C99.4824 16.2451 99.4955 15.2437 99.4794 14.2422C99.4697 13.9766 99.4215 13.7139 99.3362 13.4621C99.2361 13.1557 99.0017 12.9804 98.6823 12.9093C97.6859 12.688 96.9178 13.2999 96.9168 14.3233C96.9168 15.258 96.9168 16.1927 96.9168 17.1274C96.9181 17.2523 96.9103 17.3771 96.8937 17.5009C96.8697 17.6632 96.7875 17.8113 96.6623 17.9173C96.5372 18.0235 96.3778 18.0805 96.2137 18.0777C95.8342 18.0837 95.5538 17.8775 95.4847 17.532C95.4695 17.4497 95.4628 17.3662 95.4647 17.2826C95.4647 15.6723 95.4647 14.062 95.4647 12.4517C95.4647 11.9349 95.7651 11.6365 96.2498 11.6665C96.4095 11.6732 96.5618 11.7359 96.6801 11.8436C96.7984 11.9512 96.875 12.0969 96.8967 12.2554C96.9067 12.3205 96.9188 12.3856 96.9308 12.4557C96.9308 12.4557 96.9388 12.4627 96.9538 12.4817Z" fill="#F2CBD4"/>
<path d="M137.424 14.3917C137.055 14.7432 136.708 15.0677 136.373 15.4042C136.321 15.4745 136.294 15.5609 136.299 15.6485C136.293 16.1993 136.299 16.7501 136.299 17.2999C136.299 17.7886 136.019 18.074 135.55 18.076C135.081 18.078 134.791 17.7966 134.79 17.3099C134.79 15.0246 134.79 12.7393 134.79 10.4541C134.79 9.97636 135.09 9.68895 135.554 9.68794C136.018 9.68694 136.298 9.97035 136.299 10.4651C136.299 11.5066 136.299 12.5491 136.299 13.6467C136.572 13.3853 136.815 13.158 137.052 12.9236L140.002 10.0054C140.084 9.92224 140.171 9.84494 140.264 9.77407C140.585 9.54073 140.938 9.57378 141.182 9.85418C141.449 10.1546 141.443 10.5302 141.148 10.8146C140.332 11.601 139.512 12.3841 138.689 13.164C138.647 13.204 138.597 13.2341 138.539 13.2781L140.063 15.295C140.444 15.8007 140.83 16.3035 141.206 16.8132C141.407 17.0796 141.47 17.379 141.292 17.6784C141.215 17.8138 141.1 17.9238 140.962 17.9949C140.824 18.0661 140.667 18.0952 140.512 18.079C140.274 18.066 140.112 17.9358 139.977 17.7546C139.193 16.7177 138.408 15.6829 137.62 14.6501C137.562 14.566 137.498 14.4889 137.424 14.3917Z" fill="#F2CBD4"/>
<path d="M61.1637 17.4399C61.1637 18.168 61.1637 18.8349 61.1637 19.5019C61.1651 19.6267 61.1584 19.7514 61.1437 19.8754C61.1154 20.0462 61.0269 20.201 60.8941 20.3119C60.7613 20.4228 60.5932 20.4824 60.4201 20.4797C60.2472 20.477 60.0809 20.4123 59.9516 20.2974C59.8223 20.1824 59.7386 20.0249 59.7156 19.8534C59.7126 19.8034 59.7126 19.7532 59.7156 19.7032C59.7156 17.2844 59.7156 14.8656 59.7156 12.4467C59.7156 11.917 60.0531 11.6075 60.5538 11.6676C60.8823 11.7067 61.0866 11.931 61.1747 12.3686C61.2027 12.3546 61.2292 12.3379 61.2538 12.3185C62.4556 11.1068 64.2241 11.4243 65.1595 12.4958C66.3071 13.8107 66.2701 16.101 65.0693 17.3628C64.1019 18.3763 62.5657 18.4864 61.4061 17.6252C61.338 17.5751 61.2739 17.525 61.1637 17.4399ZM64.6467 14.9213C64.5696 14.5718 64.5396 14.2673 64.4334 13.993C64.179 13.334 63.7024 12.9234 62.9763 12.8743C62.2503 12.8253 61.6885 13.1417 61.357 13.7847C61.1696 14.1272 61.0744 14.5125 61.0805 14.9029C61.0866 15.2933 61.194 15.6754 61.392 16.0119C61.5316 16.2857 61.7482 16.513 62.0149 16.6656C62.2818 16.8182 62.5874 16.8896 62.8942 16.8711C63.202 16.8739 63.5038 16.7853 63.7612 16.6164C64.0186 16.4476 64.2202 16.2062 64.3403 15.9227C64.4925 15.6043 64.5536 15.2367 64.6467 14.9213Z" fill="#F2CBD4"/>
<path d="M68.6388 17.4524C68.6328 17.5706 68.6258 17.6527 68.6258 17.7288C68.6258 18.3457 68.6258 18.9626 68.6258 19.5805C68.6286 19.73 68.6094 19.8792 68.5687 20.0231C68.4686 20.3415 68.1451 20.5178 67.7926 20.4757C67.6331 20.4611 67.4839 20.3903 67.3718 20.2757C67.2597 20.1613 67.192 20.0107 67.1808 19.8508C67.1627 19.6185 67.1737 19.3842 67.1737 19.1498C67.1737 16.9139 67.1737 14.6774 67.1737 12.4402C67.1737 11.9124 67.5152 11.602 68.0149 11.6641C68.3404 11.7041 68.5397 11.9234 68.6318 12.3451C68.6479 12.3451 68.6709 12.3521 68.6779 12.3451C70.0008 10.9801 72.0708 11.4518 72.9601 12.9579C73.6901 14.1957 73.598 16.0334 72.7227 17.1339C71.7603 18.3447 70.113 18.551 68.8632 17.6186L68.6388 17.4524ZM72.1038 14.9157C72.0257 14.5662 71.9957 14.2628 71.8885 13.9884C71.6321 13.3305 71.1545 12.9209 70.4284 12.8738C69.7024 12.8267 69.1416 13.1462 68.8111 13.7901C68.6271 14.1291 68.5331 14.5097 68.538 14.8953C68.5429 15.2811 68.6467 15.659 68.8391 15.9933C68.9776 16.2726 69.1954 16.5047 69.4653 16.6606C69.7353 16.8165 70.0453 16.8892 70.3563 16.8696C70.6641 16.8727 70.9659 16.7844 71.2235 16.616C71.4811 16.4475 71.6829 16.2064 71.8034 15.9232C71.9556 15.5987 72.0157 15.2322 72.1038 14.9157Z" fill="#F2CBD4"/>
<path d="M48.277 18.2012C47.2705 18.1962 46.3412 17.9619 45.5791 17.2639C45.45 17.1472 45.3475 17.0041 45.2787 16.8443C45.2267 16.7018 45.223 16.5461 45.2683 16.4013C45.3135 16.2565 45.4052 16.1307 45.529 16.0431C45.651 15.9531 45.7996 15.9066 45.9511 15.9113C46.1027 15.9161 46.2482 15.9717 46.3642 16.0692C46.7648 16.3796 47.1774 16.651 47.6841 16.7461C48.3411 16.8703 48.981 16.8573 49.5618 16.4727C50.1427 16.0882 50.1417 15.3712 49.5618 14.9766C49.0801 14.6481 48.5103 14.585 47.9595 14.4649C47.5026 14.3783 47.0554 14.2464 46.6246 14.0713C44.9963 13.3563 44.9893 11.067 46.2991 10.1657C47.0522 9.64695 47.8944 9.50875 48.7787 9.58486C49.5638 9.65195 50.2939 9.8953 50.9148 10.405C51.2723 10.6994 51.3514 11.119 51.1151 11.4435C51.0666 11.5164 51.0038 11.5786 50.9304 11.6264C50.8571 11.6741 50.7748 11.7064 50.6886 11.7212C50.6022 11.736 50.5139 11.733 50.4288 11.7125C50.3438 11.692 50.2637 11.6543 50.1937 11.6017C49.4547 11.11 48.6605 10.8326 47.7602 11.0219C47.5899 11.0583 47.4256 11.119 47.2725 11.2022C47.124 11.2725 46.9994 11.3848 46.9141 11.5252C46.8288 11.6657 46.7866 11.8281 46.7929 11.9923C46.7989 12.3588 46.9621 12.6593 47.3046 12.7824C47.7953 12.9587 48.306 13.0829 48.8067 13.2211C49.1833 13.3262 49.5688 13.4043 49.9374 13.5315C50.7335 13.8079 51.2833 14.3186 51.4065 15.1959C51.5387 16.1323 51.2953 16.9324 50.5232 17.5243C49.8653 18.026 49.0972 18.2072 48.277 18.2012Z" fill="#F2CBD4"/>
<path d="M107.578 15.372C107.688 16.1992 108.429 16.8411 109.3 16.8742C109.794 16.9053 110.285 16.7783 110.702 16.5116C110.836 16.4286 110.986 16.3753 111.143 16.3554C111.259 16.3409 111.377 16.3608 111.482 16.4128C111.587 16.4647 111.675 16.5462 111.735 16.6473C111.795 16.7485 111.823 16.8648 111.817 16.982C111.811 17.0993 111.771 17.2121 111.702 17.3068C111.613 17.4276 111.505 17.5329 111.382 17.6182C110.122 18.4875 108.077 18.4064 106.982 17.2487C106.35 16.5787 106.092 15.7726 106.113 14.8733C106.139 13.7296 106.53 12.7382 107.501 12.0763C109.43 10.7624 111.695 12.0032 112.159 14.0161C112.2 14.2034 112.225 14.3941 112.233 14.5859C112.26 15.0746 111.975 15.372 111.48 15.372C110.27 15.372 109.061 15.372 107.852 15.372H107.578ZM110.682 14.1502C110.644 13.3982 109.934 12.8344 109.086 12.8694C108.238 12.9045 107.596 13.4703 107.615 14.1502H110.682Z" fill="#F2CBD4"/>
<path d="M77.4265 18.202C75.5388 18.1409 74.1929 16.6678 74.265 14.7421C74.3371 12.8333 75.7852 11.4714 77.6699 11.5375C78.1003 11.5491 78.5241 11.6466 78.9164 11.8242C79.3085 12.0018 79.6613 12.2561 79.954 12.5719C80.2467 12.8878 80.4732 13.259 80.6205 13.6636C80.7677 14.0683 80.8326 14.4982 80.8114 14.9283C80.7393 16.8992 79.3282 18.2631 77.4265 18.202ZM75.709 14.9213C75.7211 15.0215 75.7341 15.1677 75.7571 15.3149C75.8147 15.7011 75.9938 16.059 76.2684 16.3366C76.5429 16.6143 76.8988 16.7972 77.2843 16.8591C77.659 16.9138 78.0414 16.8452 78.3738 16.6637C78.7061 16.4822 78.9704 16.1976 79.127 15.8527C79.4785 15.0976 79.4414 14.3435 78.9777 13.6415C78.8451 13.441 78.672 13.2703 78.4698 13.1401C78.2676 13.01 78.0405 12.9234 77.8031 12.8857C77.5655 12.848 77.3228 12.8602 77.0902 12.9212C76.8577 12.9824 76.6404 13.0913 76.4521 13.2409C75.9354 13.6545 75.7371 14.2203 75.709 14.9213Z" fill="#F2CBD4"/>
<path d="M119.589 11.5409C121.502 11.4898 122.924 12.8798 122.969 14.8456C123.011 16.7023 121.645 18.1504 119.8 18.2044C117.909 18.2585 116.467 16.8825 116.425 14.9828C116.382 13.052 117.727 11.5909 119.589 11.5409ZM117.869 14.9217C117.881 15.0219 117.894 15.1691 117.918 15.3163C117.977 15.7022 118.157 16.0595 118.432 16.3364C118.707 16.6133 119.063 16.7954 119.449 16.8565C119.819 16.9107 120.197 16.8438 120.526 16.6659C120.856 16.488 121.119 16.2086 121.277 15.8691C121.645 15.098 121.606 14.3279 121.122 13.6159C120.987 13.4191 120.814 13.2522 120.611 13.1258C120.409 12.9994 120.183 12.9159 119.947 12.8809C119.711 12.8458 119.471 12.8599 119.24 12.9221C119.01 12.9842 118.796 13.0933 118.609 13.2423C118.094 13.6589 117.896 14.2267 117.869 14.9217Z" fill="#F2CBD4"/>
<path d="M145.022 11.5405C146.934 11.4875 148.357 12.8755 148.405 14.8453C148.45 16.7009 147.084 18.15 145.239 18.2071C143.35 18.2632 141.905 16.8872 141.861 14.9875C141.817 13.0547 143.16 11.5926 145.022 11.5405ZM143.305 14.9214C143.318 15.0215 143.331 15.1687 143.355 15.316C143.413 15.7019 143.592 16.0594 143.867 16.3365C144.142 16.6136 144.498 16.796 144.884 16.8572C145.254 16.9118 145.633 16.8453 145.962 16.6675C146.292 16.4897 146.555 16.2103 146.713 15.8708C147.081 15.0996 147.042 14.3295 146.558 13.6165C146.424 13.4198 146.25 13.253 146.047 13.1265C145.846 13.0001 145.62 12.9167 145.384 12.8816C145.148 12.8464 144.908 12.8602 144.677 12.9222C144.447 12.9843 144.233 13.0931 144.047 13.242C143.53 13.6576 143.334 14.2254 143.305 14.9214Z" fill="#F2CBD4"/>
<path d="M125.622 12.5323C126.043 12.0757 126.484 11.7312 127.06 11.601C127.543 11.4938 128.046 11.5209 128.514 11.6791C129.062 11.8594 129.385 12.272 129.526 12.8007C129.647 13.2412 129.717 13.6942 129.735 14.1506C129.765 15.2092 129.748 16.2687 129.743 17.3282C129.743 17.7999 129.449 18.0833 128.996 18.0763C128.57 18.0703 128.295 17.7709 128.295 17.3062C128.295 16.3047 128.31 15.3033 128.285 14.3019C128.264 13.981 128.197 13.6649 128.085 13.3635C128.019 13.2197 127.908 13.1015 127.768 13.027C126.835 12.4823 125.623 13.1642 125.613 14.2398C125.604 15.1992 125.613 16.1585 125.613 17.1179C125.615 17.2519 125.607 17.3859 125.587 17.5185C125.56 17.6714 125.481 17.8103 125.364 17.912C125.247 18.0135 125.097 18.0716 124.942 18.0763C124.558 18.0923 124.269 17.897 124.186 17.5616C124.169 17.4886 124.161 17.414 124.161 17.3392C124.161 15.6956 124.161 14.0525 124.161 12.4101C124.161 11.9315 124.473 11.641 124.934 11.6641C125.098 11.6681 125.255 11.7311 125.376 11.8414C125.497 11.9518 125.574 12.1022 125.593 12.2649C125.597 12.34 125.606 12.4182 125.622 12.5323Z" fill="#F2CBD4"/>
<path d="M58.1368 14.0735C58.1368 14.7404 58.1929 15.4114 58.1248 16.0704C57.9996 17.2721 57.0923 18.1033 55.8876 18.1734C55.4399 18.2066 54.9898 18.1814 54.5486 18.0983C54.051 18.0025 53.6008 17.7403 53.2721 17.3545C52.9433 16.9688 52.7558 16.4828 52.74 15.9762C52.678 14.7615 52.702 13.5427 52.707 12.325C52.707 11.9434 53.0074 11.678 53.388 11.665C53.5688 11.6483 53.7489 11.7039 53.8887 11.8198C54.0286 11.9356 54.1168 12.1022 54.134 12.2829C54.1479 12.3986 54.1543 12.5149 54.1531 12.6314C54.1531 13.5988 54.1531 14.5662 54.1531 15.5356C54.1531 16.2076 54.4094 16.6272 54.8991 16.7934C55.2494 16.9136 55.6295 16.9136 55.9797 16.7934C56.4624 16.6342 56.7248 16.2035 56.7288 15.5596C56.7288 14.5171 56.7288 13.4746 56.7288 12.4321C56.7288 11.9735 57.0162 11.673 57.4398 11.665C57.5357 11.6599 57.6318 11.6746 57.7218 11.7082C57.8119 11.7417 57.894 11.7935 57.9633 11.8602C58.0325 11.9269 58.0873 12.007 58.1242 12.0958C58.1611 12.1846 58.1794 12.2799 58.1779 12.3761C58.1849 12.9439 58.1779 13.5107 58.1779 14.0785L58.1368 14.0735Z" fill="#F2CBD4"/>
<path d="M156.684 11.7751C157.04 11.7751 157.371 11.7751 157.703 11.7751C158.172 11.7751 158.461 12.0405 158.453 12.4561C158.445 12.8717 158.166 13.109 157.705 13.111C157.373 13.111 157.042 13.111 156.683 13.111V13.4024C156.683 14.7283 156.683 16.0543 156.683 17.3802C156.688 17.527 156.645 17.6715 156.56 17.7913C156.475 17.9111 156.353 17.9996 156.213 18.0431C155.912 18.1433 155.569 18.0701 155.412 17.8138C155.314 17.6518 155.262 17.4669 155.26 17.278C155.247 16.0022 155.253 14.7263 155.253 13.4505V13.111C155.047 13.111 154.853 13.111 154.653 13.111C154.215 13.111 153.932 12.8537 153.924 12.4581C153.916 12.0625 154.202 11.7821 154.65 11.7751C154.84 11.7751 155.03 11.7751 155.25 11.7751C155.25 11.6319 155.257 11.5097 155.25 11.3875C155.174 10.1778 155.945 9.30859 157.282 9.22447C157.63 9.20422 157.977 9.24281 158.312 9.33863C158.699 9.44979 158.842 9.8043 158.726 10.1778C158.626 10.4953 158.368 10.6275 157.966 10.5684C157.771 10.529 157.573 10.505 157.373 10.4963C157.011 10.4963 156.807 10.6785 156.724 11.034C156.704 11.1149 156.693 11.1974 156.689 11.2804C156.68 11.4366 156.684 11.5938 156.684 11.7751Z" fill="#F2CBD4"/>
<path d="M87.826 13.1109C87.6167 13.1109 87.4415 13.1159 87.2662 13.1109C87.1783 13.1132 87.0908 13.0977 87.0091 13.0652C86.9273 13.0328 86.8529 12.9841 86.7905 12.9222C86.7282 12.8602 86.6789 12.7862 86.6458 12.7047C86.6128 12.6233 86.5966 12.5359 86.5983 12.448C86.5983 12.0724 86.8606 11.796 87.2582 11.778C87.4395 11.769 87.6207 11.778 87.826 11.778C87.826 11.5096 87.826 11.2612 87.826 11.0129C87.8245 10.9183 87.8418 10.8241 87.8767 10.7361C87.9116 10.6481 87.9635 10.5678 88.0294 10.4999C88.0953 10.4319 88.174 10.3775 88.261 10.3399C88.3479 10.3024 88.4413 10.2822 88.5361 10.2808C88.6307 10.2794 88.7248 10.2967 88.8128 10.3315C88.9009 10.3664 88.9812 10.4183 89.0491 10.4842C89.1171 10.5501 89.1715 10.6288 89.209 10.7158C89.2466 10.8027 89.2667 10.8962 89.2681 10.9909C89.2761 11.2402 89.2681 11.4916 89.2681 11.778C89.5565 11.778 89.8369 11.772 90.1163 11.778C90.2551 11.7737 90.3917 11.814 90.5058 11.8932C90.6199 11.9724 90.7057 12.086 90.7502 12.2176C90.8504 12.497 90.7813 12.8025 90.5499 12.9577C90.4097 13.0433 90.2511 13.0941 90.0873 13.1059C89.8249 13.1289 89.5585 13.1119 89.2711 13.1119V13.3042C89.2711 14.2886 89.2711 15.273 89.2711 16.2574C89.2711 16.7321 89.5054 16.9094 89.9591 16.7882C90.3747 16.677 90.5529 16.7291 90.6801 16.9995C90.8303 17.319 90.7322 17.6314 90.4147 17.8437C89.8549 18.2192 88.6883 18.1341 88.2036 17.6685C87.9031 17.377 87.831 16.9865 87.828 16.5879C87.822 15.5284 87.828 14.4699 87.828 13.4103L87.826 13.1109Z" fill="#F2CBD4"/>
<path d="M83.4653 12.4649C83.9069 11.847 84.4867 11.5947 85.1677 11.5486C85.3499 11.5354 85.5329 11.5578 85.7065 11.6147C86.1131 11.7539 86.2803 12.1314 86.1441 12.54C86.0279 12.8885 85.6945 13.0498 85.2919 12.9486C85.2038 12.9256 85.1176 12.8925 85.0295 12.8675C84.8096 12.7971 84.573 12.799 84.3543 12.8731C84.1356 12.9472 83.9466 13.0895 83.8148 13.2791C83.5657 13.6173 83.437 14.0291 83.4492 14.4488C83.4492 15.3408 83.4492 16.233 83.4492 17.1256C83.4505 17.2505 83.4428 17.3754 83.4262 17.4992C83.4022 17.6613 83.3201 17.8092 83.1952 17.9153C83.0703 18.0214 82.9111 18.0785 82.7472 18.076C82.3677 18.083 82.0873 17.8757 82.0172 17.5312C82.003 17.4577 81.9962 17.3828 81.9972 17.3079C81.9972 15.6822 81.9972 14.0562 81.9972 12.4299C81.9972 11.9452 82.2976 11.6477 82.7512 11.6618C82.9154 11.6622 83.074 11.7214 83.1982 11.8287C83.3224 11.936 83.404 12.0843 83.4282 12.2466C83.4342 12.3017 83.4452 12.3568 83.4653 12.4649Z" fill="#F2CBD4"/>
<path d="M159.252 14.8702C159.252 14.0611 159.252 13.2529 159.252 12.4437C159.252 11.9891 159.502 11.6987 159.897 11.6656C160.368 11.6266 160.698 11.92 160.698 12.4067C160.707 12.9244 160.698 13.4412 160.698 13.9579C160.698 15.0675 160.698 16.1761 160.698 17.2857C160.698 17.7864 160.421 18.0778 159.965 18.0758C159.509 18.0738 159.251 17.7864 159.247 17.2967C159.247 16.4886 159.252 15.6794 159.252 14.8702Z" fill="#F2CBD4"/>
<path d="M151.174 15.1215C150.832 15.1215 150.491 15.1215 150.149 15.1215C149.723 15.1215 149.424 14.8401 149.408 14.4406C149.399 14.3444 149.411 14.2476 149.441 14.1561C149.472 14.0646 149.522 13.9807 149.587 13.9096C149.653 13.8385 149.733 13.7818 149.821 13.7432C149.909 13.7046 150.005 13.685 150.101 13.6855C150.825 13.6667 151.549 13.6667 152.273 13.6855C152.369 13.6876 152.465 13.7091 152.553 13.749C152.64 13.7888 152.719 13.846 152.784 13.9172C152.849 13.9884 152.898 14.0719 152.93 14.163C152.962 14.254 152.975 14.3504 152.968 14.4466C152.955 14.8401 152.652 15.1175 152.222 15.1215C151.873 15.1215 151.523 15.1215 151.174 15.1215Z" fill="#F2CBD4"/>
<path d="M160.739 10.1797C160.739 10.7495 160.587 10.8917 159.977 10.8917C159.367 10.8917 159.22 10.7465 159.221 10.1717C159.221 9.61684 159.396 9.4526 159.989 9.45561C160.582 9.45861 160.74 9.60282 160.739 10.1797Z" fill="#F2CBD4"/>
</g>
<defs>
<clipPath id="clip0_1789_3687">
<rect width="174" height="30" fill="white"/>
</clipPath>
</defs>
</svg>
