<svg width="35" height="26" viewBox="0 0 35 26" fill="none" xmlns="http://www.w3.org/2000/svg">
<g clip-path="url(#clip0_1789_3611)">
<mask id="mask0_1789_3611" style="mask-type:luminance" maskUnits="userSpaceOnUse" x="0" y="0" width="35" height="26">
<path d="M34.96 0H0V25.61H34.96V0Z" fill="white"/>
</mask>
<g mask="url(#mask0_1789_3611)">
<path d="M13 24.6102C23.57 24.6102 29.34 15.8302 29.34 8.22027C29.34 7.97027 29.34 7.72027 29.34 7.47027C30.466 6.65041 31.4348 5.63414 32.2 4.47027C31.1551 4.93672 30.046 5.24349 28.91 5.38028C30.1079 4.65648 31.0031 3.52324 31.43 2.19027C30.3035 2.8573 29.0731 3.33054 27.79 3.59027C26.9242 2.66602 25.777 2.05405 24.5272 1.84966C23.2774 1.64528 21.9951 1.85996 20.88 2.46027C19.7636 3.05565 18.877 4.00554 18.36 5.16027C17.8387 6.32109 17.7123 7.62075 18 8.86027C15.7187 8.74617 13.4871 8.15333 11.45 7.12027C9.40987 6.08314 7.61089 4.62828 6.16996 2.85027C5.4362 4.11624 5.21082 5.61369 5.53943 7.03955C5.86805 8.46542 6.72612 9.71317 7.93996 10.5302C7.02877 10.5064 6.13681 10.2628 5.33996 9.82028V9.89028C5.34089 11.2263 5.80625 12.5205 6.65637 13.5512C7.50648 14.5819 8.68848 15.2851 9.99996 15.5402C9.15515 15.7698 8.26867 15.8006 7.40996 15.6302C7.77338 16.7734 8.48583 17.7741 9.44721 18.4915C10.4086 19.209 11.5706 19.6072 12.77 19.6302C10.7372 21.2293 8.22626 22.0991 5.63996 22.1002C5.16159 22.099 4.68384 22.0656 4.20996 22.0002C6.82986 23.6934 9.88058 24.5992 13 24.6102Z" fill="#4C2C57" stroke="#4C2C57" stroke-width="2" stroke-miterlimit="10"/>
<path d="M13.2988 24.3018C23.7511 24.0176 29.2299 15.5184 29.0332 8.28642C29.0267 8.04883 29.0203 7.81125 29.0138 7.57366C30.1061 6.76424 31.0378 5.77239 31.7644 4.64575C30.7432 5.11713 29.6544 5.43848 28.5346 5.59902C29.7005 4.87896 30.5564 3.77794 30.9441 2.49969C29.8474 3.16388 28.6429 3.6467 27.3808 3.92804C26.5008 3.07297 25.3506 2.52224 24.1094 2.36161C22.8683 2.20099 21.6058 2.43949 20.5186 3.03997C19.43 3.6358 18.5779 4.56235 18.0965 5.67364C17.611 6.79083 17.5196 8.02934 17.8361 9.19956C15.5773 9.15247 13.3552 8.64908 11.3141 7.72211C9.26992 6.79134 7.45339 5.45711 5.98257 3.80615C5.2897 5.02898 5.10553 6.45812 5.46732 7.80433C5.82913 9.15055 6.70988 10.3133 7.93131 11.0571C7.02966 11.059 6.14134 10.8515 5.34194 10.4523L5.34374 10.5188C5.37919 11.7885 5.87281 13.0059 6.7401 13.9626C7.60737 14.9192 8.79437 15.5557 10.0978 15.7629C9.26837 16.0038 8.39256 16.0569 7.53901 15.9181C7.92793 16.9947 8.6583 17.9266 9.62751 18.5825C10.5967 19.2385 11.7561 19.5857 12.9427 19.5753C10.9739 21.1496 8.51339 22.0438 5.95594 22.1143C5.48287 22.1261 5.00958 22.1072 4.53929 22.0578C7.17375 23.5964 10.2139 24.3752 13.2988 24.3018Z" fill="#F2CBD4"/>
</g>
</g>
<defs>
<clipPath id="clip0_1789_3611">
<rect width="35" height="26" fill="white"/>
</clipPath>
</defs>
</svg>
