<svg width="35" height="26" viewBox="0 0 35 26" fill="none" xmlns="http://www.w3.org/2000/svg">
<g clip-path="url(#clip0_1789_3718)">
<mask id="mask0_1789_3718" style="mask-type:luminance" maskUnits="userSpaceOnUse" x="0" y="0" width="35" height="26">
<path d="M34.96 0H0V25.61H34.96V0Z" fill="white"/>
</mask>
<g mask="url(#mask0_1789_3718)">
<path d="M13 24.6098C23.57 24.6098 29.34 15.8298 29.34 8.21979C29.34 7.96979 29.34 7.71979 29.34 7.46979C30.466 6.64993 31.4348 5.63366 32.2 4.46979C31.1551 4.93624 30.046 5.243 28.91 5.37979C30.1079 4.65599 31.0031 3.52276 31.43 2.18979C30.3035 2.85682 29.0731 3.33006 27.79 3.58979C26.9242 2.66554 25.777 2.05357 24.5272 1.84918C23.2774 1.6448 21.9951 1.85948 20.88 2.45979C19.7636 3.05517 18.877 4.00506 18.36 5.15979C17.8387 6.32061 17.7123 7.62027 18 8.85979C15.7187 8.74569 13.4871 8.15285 11.45 7.11979C9.40987 6.08266 7.61089 4.6278 6.16996 2.84979C5.4362 4.11576 5.21082 5.61321 5.53943 7.03907C5.86805 8.46494 6.72612 9.71269 7.93996 10.5298C7.02877 10.506 6.13681 10.2624 5.33996 9.81979V9.88979C5.34089 11.2259 5.80625 12.5201 6.65637 13.5508C7.50648 14.5815 8.68848 15.2847 9.99996 15.5398C9.15515 15.7694 8.26867 15.8002 7.40996 15.6298C7.77338 16.773 8.48583 17.7737 9.44721 18.4911C10.4086 19.2086 11.5706 19.6068 12.77 19.6298C10.7372 21.2289 8.22626 22.0987 5.63996 22.0998C5.16159 22.0986 4.68384 22.0652 4.20996 21.9998C6.82986 23.693 9.88058 24.5988 13 24.6098Z" stroke="#F2CBD4" stroke-width="2" stroke-miterlimit="10"/>
<path d="M13.4791 24C23.6753 24 29.2412 15.5414 29.2412 8.20993C29.2412 7.96908 29.2412 7.72823 29.2412 7.48738C30.3273 6.69753 31.2619 5.71846 32 4.59719C30.9921 5.04656 29.9222 5.3421 28.8264 5.47388C29.9819 4.77657 30.8454 3.68482 31.2572 2.40064C30.1706 3.04326 28.9837 3.49917 27.746 3.7494C26.9108 2.85898 25.8042 2.26941 24.5986 2.0725C23.393 1.8756 22.1561 2.08242 21.0804 2.66076C20.0035 3.23435 19.1483 4.14947 18.6495 5.26193C18.1467 6.38026 18.0247 7.63235 18.3023 8.82651C16.1017 8.71658 13.949 8.14544 11.984 7.15019C10.016 6.15102 8.28064 4.74941 6.89067 3.03648C6.18287 4.25612 5.96546 5.69876 6.28245 7.07243C6.59944 8.44611 7.42716 9.64819 8.59807 10.4354C7.71911 10.4124 6.8587 10.1777 6.09003 9.75137V9.81881C6.09093 11.106 6.53983 12.3528 7.35988 13.3458C8.17992 14.3388 9.32011 15.0162 10.5852 15.262C9.77027 15.4832 8.91515 15.5128 8.08681 15.3487C8.43738 16.45 9.12463 17.4141 10.052 18.1053C10.9794 18.7965 12.1003 19.1801 13.2573 19.2023C11.2964 20.7428 8.87424 21.5808 6.37942 21.5819C5.91797 21.5807 5.45712 21.5485 5 21.4855C7.52723 23.1168 10.47 23.9894 13.4791 24Z" fill="#2C233D"/>
</g>
</g>
<defs>
<clipPath id="clip0_1789_3718">
<rect width="35" height="26" fill="white"/>
</clipPath>
</defs>
</svg>
