<svg width="32" height="28" viewBox="0 0 32 28" fill="none" xmlns="http://www.w3.org/2000/svg">
<path d="M7.5029 2.31743C10.9423 4.95679 14.6418 10.3083 16.0001 13.1802C17.3585 10.3085 21.0577 4.95673 24.4973 2.31743C26.979 0.41298 31 -1.06058 31 3.62836C31 4.5648 30.4747 11.495 30.1667 12.6201C29.0958 16.5316 25.1937 17.5293 21.7228 16.9255C27.79 17.981 29.3334 21.4772 26.0002 24.9734C19.6697 31.6135 16.9014 23.3074 16.1918 21.1791C16.0617 20.789 16.0009 20.6064 16 20.7616C15.9991 20.6064 15.9383 20.789 15.8082 21.1791C15.0989 23.3074 12.3307 31.6137 5.99983 24.9734C2.66654 21.4772 4.20993 17.9808 10.2772 16.9255C6.80616 17.5293 2.90401 16.5316 1.83332 12.6201C1.52525 11.4949 1 4.5647 1 3.62836C1 -1.06058 5.02129 0.41298 7.5029 2.31743Z" fill="#4C2C57"/>
<path d="M7.63663 2.31743C11.0761 4.95679 14.7756 10.3083 16.1338 13.1802C17.4922 10.3085 21.1915 4.95673 24.631 2.31743C27.1127 0.41298 31.1337 -1.06058 31.1337 3.62836C31.1337 4.5648 30.6085 11.495 30.3004 12.6201C29.2296 16.5316 25.3275 17.5293 21.8565 16.9255C27.9237 17.981 29.4671 21.4772 26.1339 24.9734C19.8034 31.6135 17.0352 23.3074 16.3255 21.1791C16.1955 20.789 16.1346 20.6064 16.1337 20.7616C16.1328 20.6064 16.072 20.789 15.942 21.1791C15.2326 23.3074 12.4644 31.6137 6.13357 24.9734C2.80028 21.4772 4.34367 17.9808 10.411 16.9255C6.93989 17.5293 3.03774 16.5316 1.96706 12.6201C1.65898 11.4949 1.13374 4.5647 1.13374 3.62836C1.13374 -1.06058 5.15503 0.41298 7.63663 2.31743Z" fill="#4C2C57"/>
<path d="M7.5029 2.31743C10.9423 4.95679 14.6418 10.3083 16.0001 13.1802C17.3585 10.3085 21.0577 4.95673 24.4973 2.31743C26.979 0.41298 31 -1.06058 31 3.62836C31 4.5648 30.4747 11.495 30.1667 12.6201C29.0958 16.5316 25.1937 17.5293 21.7228 16.9255C27.79 17.981 29.3334 21.4772 26.0002 24.9734C19.6697 31.6135 16.9014 23.3074 16.1918 21.1791C16.0617 20.789 16.0009 20.6064 16 20.7616C15.9991 20.6064 15.9383 20.789 15.8082 21.1791C15.0989 23.3074 12.3307 31.6137 5.99983 24.9734C2.66654 21.4772 4.20993 17.9808 10.2772 16.9255C6.80616 17.5293 2.90401 16.5316 1.83332 12.6201C1.52525 11.4949 1 4.5647 1 3.62836C1 -1.06058 5.02129 0.41298 7.5029 2.31743Z" stroke="#4C2C57"/>
<path d="M7.63663 2.31743C11.0761 4.95679 14.7756 10.3083 16.1338 13.1802C17.4922 10.3085 21.1915 4.95673 24.631 2.31743C27.1127 0.41298 31.1337 -1.06058 31.1337 3.62836C31.1337 4.5648 30.6085 11.495 30.3004 12.6201C29.2296 16.5316 25.3275 17.5293 21.8565 16.9255C27.9237 17.981 29.4671 21.4772 26.1339 24.9734C19.8034 31.6135 17.0352 23.3074 16.3255 21.1791C16.1955 20.789 16.1346 20.6064 16.1337 20.7616C16.1328 20.6064 16.072 20.789 15.942 21.1791C15.2326 23.3074 12.4644 31.6137 6.13357 24.9734C2.80028 21.4772 4.34367 17.9808 10.411 16.9255C6.93989 17.5293 3.03774 16.5316 1.96706 12.6201C1.65898 11.4949 1.13374 4.5647 1.13374 3.62836C1.13374 -1.06058 5.15503 0.41298 7.63663 2.31743Z" stroke="#4C2C57"/>
<path d="M8.06937 3.44896C11.2795 5.84393 14.7324 10.6999 16.0001 13.3059C17.2679 10.7001 20.7206 5.84388 23.9308 3.44896C26.2471 1.72084 30 0.383725 30 4.6385C30 5.48824 29.5098 11.7767 29.2222 12.7976C28.2228 16.347 24.5808 17.2523 21.3412 16.7044C27.004 17.6622 28.4445 20.8347 25.3335 24.0072C19.425 30.0324 16.8413 22.4954 16.179 20.5642C16.0576 20.2102 16.0008 20.0445 16 20.1854C15.9992 20.0445 15.9424 20.2102 15.821 20.5642C15.159 22.4954 12.5753 30.0326 6.66651 24.0072C3.55544 20.8347 4.99593 17.662 10.6588 16.7044C7.41908 17.2523 3.77707 16.347 2.77777 12.7976C2.49023 11.7766 2 5.48814 2 4.6385C2 0.383725 5.7532 1.72084 8.06937 3.44896Z" fill="#F2CBD4"/>
</svg>
