<svg width="35" height="40" viewBox="0 0 35 40" fill="none" xmlns="http://www.w3.org/2000/svg">
<path d="M27.4866 20C27.4866 25.5228 23.0094 30 17.4866 30C11.9637 30 7.48657 25.5228 7.48657 20C7.48657 14.4772 11.9637 10 17.4866 10C23.0094 10 27.4866 14.4772 27.4866 20Z" fill="#FCBA9F"/>
<path d="M17.4866 0L21.8167 7.5H13.1564L17.4866 0Z" fill="#FCBA9F"/>
<path d="M17.4866 40L21.8167 32.5H13.1564L17.4866 40Z" fill="#FCBA9F"/>
<path d="M0.166016 9.99995L8.82627 9.99995L4.49614 17.5L0.166016 9.99995Z" fill="#FCBA9F"/>
<path d="M34.807 30L30.4769 22.5L26.1468 30L34.807 30Z" fill="#FCBA9F"/>
<path d="M0.166016 30L4.49614 22.5L8.82627 30H0.166016Z" fill="#FCBA9F"/>
<path d="M34.807 9.99995H26.1468L30.4769 17.5L34.807 9.99995Z" fill="#FCBA9F"/>
</svg>
