<svg width="41" height="41" viewBox="0 0 41 41" fill="none" xmlns="http://www.w3.org/2000/svg">
<path d="M20.5683 32.1405C23.6437 31.0582 24.4913 27.4665 23.431 26.8323C22.3755 26.2013 21.1626 26.8517 20.5244 28.0052C19.9139 26.8582 18.6945 26.1981 17.6342 26.8323C16.5739 27.4665 17.4231 31.0582 20.4968 32.1405" fill="#D8B86D"/>
<path d="M21.5182 11.0662C21.83 10.5922 17.4783 7.04584 14.0765 8.72679C10.2737 10.6067 7.49224 17.981 10.0155 19.4467C13.5602 21.503 17.2348 15.2856 22.4096 14.7986C26.5567 14.4071 28.4013 17.8467 27.0016 19.5681C24.717 22.3751 21.161 17.8839 19.9935 18.4938C19.1102 18.9565 24.8631 25.8826 29.8481 22.1114C32.5678 20.0535 31.8014 13.7713 25.9299 12.7553C22.6646 12.1906 18.8439 12.9866 15.9747 14.31C13.1413 15.6189 12.1979 16.4019 12.3391 15.0073C12.4788 13.6144 15.054 11.1002 16.8142 11.0355C18.7026 10.9659 21.1999 11.5516 21.5182 11.0662Z" fill="#D8B86D"/>
<path fill-rule="evenodd" clip-rule="evenodd" d="M25.1404 0.556085C23.9926 0.298697 21.5031 0.00158881 20.4857 0C20.0405 0.00158881 18.7433 0.0873856 18.1583 0.157293C16.9787 0.298698 14.5464 0.845249 13.5958 1.19955C12.4766 1.619 10.3766 2.65491 9.38774 3.27455C8.40369 3.89577 6.61364 5.38767 5.78221 6.23927C4.9794 7.06228 3.60427 8.7909 2.93181 9.92214C2.33248 10.9342 1.28007 13.2078 0.963715 14.1754C0.650538 15.143 0.165672 17.6009 0.0543903 18.7718C-0.0664296 20.081 0.0289575 22.2895 0.19429 23.4255C0.365981 24.6044 0.936695 26.8621 1.36751 27.9425C1.80469 29.0244 2.89366 31.0963 3.55181 32.094C4.11299 32.9377 5.75995 34.8093 6.62953 35.6164C7.59768 36.5109 9.24466 37.7073 10.3956 38.3508C11.4337 38.9291 13.7229 39.9158 14.699 40.1874C15.8532 40.5068 18.1599 40.9008 19.3252 40.9803C20.4857 41.0565 22.8115 40.9008 23.9847 40.7022C25.1182 40.5068 27.2484 39.9158 28.4566 39.3962C29.5376 38.9291 31.7251 37.7073 32.5502 37.1099C33.3721 36.5109 35.2114 34.8093 35.9904 33.9259C36.8584 32.9377 38.0777 31.0963 38.615 30.0794C39.1666 29.0244 40.0331 26.8621 40.3208 25.7356C40.6038 24.6044 40.9408 22.2895 40.9948 21.0931C41.0378 20.081 40.8057 17.6009 40.5767 16.4363C40.3192 15.143 39.6912 13.2078 39.138 12.0114C38.6388 10.9342 37.3671 8.7909 36.7375 7.99808C35.9904 7.06227 34.3561 5.38767 33.4611 4.63934C32.5677 3.89577 30.5932 2.65491 29.5265 2.12742C28.4948 1.619 26.4249 0.845249 25.1404 0.556085ZM20.4857 1.32983C21.5444 1.33142 24.096 1.66348 25.266 1.94946C26.4265 2.23863 28.6521 3.14266 29.7284 3.72735C30.9112 4.37241 32.6233 5.61645 33.6042 6.54113C34.4928 7.38321 36.0412 9.21828 36.6755 10.2335C37.3098 11.2567 38.4131 13.5796 38.7422 14.5853C39.0665 15.5926 39.5402 18.1204 39.6293 19.32C39.7135 20.5147 39.5402 22.9075 39.3161 24.1118C39.0665 25.4353 38.4131 27.4483 37.836 28.6654C37.3098 29.7712 36.0412 31.8096 35.2702 32.7248C34.4928 33.6447 32.6233 35.4115 31.768 36.0343C30.9112 36.6555 28.6521 37.8852 27.5377 38.3412C26.4265 38.7893 24.096 39.366 22.8814 39.5249C21.5445 39.6965 19.4269 39.6965 18.09 39.5249C16.8754 39.366 14.5432 38.7893 13.4336 38.3412C12.3192 37.8852 10.0602 36.6555 9.20333 36.0343C8.34806 35.4115 6.47852 33.6447 5.69955 32.7248C4.93012 31.8096 3.66151 29.7712 3.13531 28.6654C2.55824 27.4483 1.90486 25.4353 1.65368 24.1118C1.43112 22.9075 1.25783 20.5147 1.34208 19.32C1.43111 18.1204 1.90486 15.5926 2.22917 14.5853C2.55824 13.5796 3.66152 11.2567 4.29582 10.2335C4.93013 9.21828 6.47852 7.38321 7.36718 6.54113C8.34805 5.61645 10.0602 4.37241 11.243 3.72735C12.3192 3.14266 14.5433 2.23863 15.7054 1.94946C16.8754 1.66348 19.4269 1.33142 20.4857 1.32983Z" fill="#D8B86D"/>
<path d="M8.81325 22.605L5.16992 32.0011L15.8575 24.7936L8.81325 22.605Z" fill="#D8B86D"/>
<path d="M32.2533 22.605L35.8967 32.0011L25.2091 24.7936L32.2533 22.605Z" fill="#D8B86D"/>
<path d="M20.0518 31.1405C22.9893 30.1035 23.7989 26.6624 22.7862 26.0547C21.778 25.4502 20.6195 26.0733 20.0099 27.1785C19.4268 26.0795 18.262 25.4471 17.2492 26.0547C16.2365 26.6624 17.0476 30.1035 19.9836 31.1405" fill="#F4DF7E"/>
<path d="M20.9591 10.9494C21.2569 10.4952 17.1004 7.09746 13.8511 8.70798C10.2187 10.5092 7.56195 17.5743 9.97215 18.9787C13.3579 20.9488 16.8677 14.9919 21.8106 14.5254C25.7718 14.1502 27.5337 17.4457 26.1967 19.0949C24.0145 21.7843 20.6179 17.4813 19.5028 18.0657C18.6591 18.509 24.1541 25.1448 28.9156 21.5317C31.5134 19.56 30.7814 13.5411 25.1731 12.5676C22.0541 12.0267 18.4047 12.7893 15.6642 14.0572C12.9577 15.3112 12.0566 16.0615 12.1916 14.7253C12.325 13.3907 14.7848 10.9819 16.466 10.9199C18.2698 10.8533 20.6552 11.4144 20.9591 10.9494Z" fill="#F4DF7E"/>
<path fill-rule="evenodd" clip-rule="evenodd" d="M24.5272 0.542522C23.4074 0.291412 20.9786 0.00155006 19.986 0C19.5517 0.00155006 18.2862 0.0852542 17.7154 0.153457C16.5646 0.291412 14.1916 0.824633 13.2642 1.1703C12.1723 1.57951 10.1235 2.59016 9.15877 3.19468C8.19872 3.80075 6.45233 5.25626 5.64118 6.08709C4.85795 6.89003 3.51636 8.57649 2.8603 9.68014C2.27559 10.6675 1.24885 12.8857 0.94021 13.8296C0.634671 14.7736 0.161631 17.1716 0.0530637 18.314C-0.0648093 19.5912 0.0282513 21.7458 0.189551 22.8541C0.357055 24.0043 0.913849 26.2069 1.33416 27.2609C1.76067 28.3165 2.82308 30.3378 3.46518 31.3112C4.01267 32.1343 5.61946 33.9603 6.46784 34.7477C7.41237 35.6204 9.01918 36.7876 10.1421 37.4154C11.1549 37.9796 13.3882 38.9422 14.3405 39.2073C15.4665 39.5188 17.717 39.9032 18.8538 39.9807C19.986 40.0551 22.2551 39.9032 23.3997 39.7095C24.5055 39.5188 26.5838 38.9422 27.7625 38.4353C28.8172 37.9796 30.9513 36.7876 31.7563 36.2048C32.5581 35.6204 34.3526 33.9603 35.1125 33.0985C35.9594 32.1343 37.149 30.3378 37.6732 29.3458C38.2114 28.3165 39.0566 26.2069 39.3374 25.1079C39.6134 24.0043 39.9422 21.7458 39.995 20.5786C40.0368 19.5912 39.8104 17.1716 39.5871 16.0354C39.3358 14.7736 38.7232 12.8857 38.1834 11.7185C37.6964 10.6675 36.4557 8.57649 35.8415 7.80301C35.1125 6.89002 33.5182 5.25626 32.645 4.52618C31.7733 3.80075 29.847 2.59016 28.8063 2.07553C27.7998 1.57951 25.7804 0.824633 24.5272 0.542522ZM19.986 1.29739C21.019 1.29894 23.5083 1.6229 24.6498 1.90192C25.782 2.18403 27.9533 3.06601 29.0033 3.63644C30.1572 4.26576 31.8276 5.47946 32.7846 6.38159C33.6515 7.20313 35.1622 8.99345 35.781 9.98394C36.3998 10.9822 37.4762 13.2484 37.7973 14.2296C38.1137 15.2123 38.5759 17.6784 38.6627 18.8487C38.7449 20.0144 38.5758 22.3488 38.3572 23.5237C38.1137 24.8149 37.4762 26.7789 36.9132 27.9662C36.3998 29.045 35.1622 31.0338 34.41 31.9266C33.6515 32.8241 31.8276 34.5478 30.9932 35.1554C30.1572 35.7615 27.9533 36.9612 26.8661 37.4061C25.782 37.8432 23.5083 38.4059 22.3233 38.5609C21.019 38.7283 18.9531 38.7283 17.6487 38.5609C16.4638 38.4059 14.1885 37.8432 13.106 37.4061C12.0187 36.9612 9.81483 35.7615 8.97886 35.1554C8.14444 34.5478 6.32051 32.8241 5.56054 31.9266C4.80987 31.0338 3.57221 29.045 3.05884 27.9662C2.49584 26.7789 1.8584 24.8149 1.61335 23.5237C1.39621 22.3488 1.22715 20.0144 1.30935 18.8487C1.3962 17.6784 1.8584 15.2123 2.1748 14.2296C2.49585 13.2484 3.57221 10.9822 4.19105 9.98394C4.80988 8.99345 6.32051 7.20313 7.18749 6.38159C8.14444 5.47946 9.81482 4.26576 10.9687 3.63644C12.0187 3.06601 14.1885 2.18403 15.3223 1.90192C16.4638 1.6229 18.9531 1.29894 19.986 1.29739Z" fill="#F4DF7E"/>
<path d="M8.69468 22.605L5.16992 31.0011L15.5097 24.5606L8.69468 22.605Z" fill="#F4DF7E"/>
<path d="M31.3719 22.605L34.8967 31.0011L24.5569 24.5606L31.3719 22.605Z" fill="#F4DF7E"/>
</svg>
